<svg id="Layer_1" data-name="Layer 1" xmlns="http://www.w3.org/2000/svg" viewBox="0 0 412.03 120.98"><defs><style>.cls-1{fill:#fff;}</style></defs><title>ng_2flush_white_grayscale</title><path class="cls-1" d="M0,0V121H84.68V0ZM72.59,108.88H12.1V12.1H72.59Z"/><path class="cls-1" d="M140.77,54.27h-5.23c-6.86-9.69-13.66-19.31-20.45-30.2H115v30.2h-5.78V12.16h5.23c6.86,9.63,13.66,19.19,20.4,30H135v-30h5.77Z"/><path class="cls-1" d="M154.49,37.61c1.68-5.54,3.37-10.65,4.87-17.15h.12c1.68,6.5,3.19,11.61,4.75,17.15Zm2.77-25.45L142.7,54.27H149l3.67-11.49h12.7l3.3,11.49h8.07L163.27,12.16Z"/><path class="cls-1" d="M183.48,54.27V17.81H172.41V12.16h29.36v5.65H190.7V54.27Z"/><path class="cls-1" d="M204.12,54.27V12.16h7.15V54.27Z"/><path class="cls-1" d="M233.53,49c-7.52,0-10.16-8.31-10.16-16.36,0-7.77,3-15.17,10.16-15.17s10.17,7.4,10.17,15.17C243.7,40.67,241.05,49,233.53,49Zm0,6c11,0,17.87-9.8,17.87-22.37,0-11.8-7.58-21.18-17.87-21.18s-17.86,9.38-17.86,21.18C215.67,45.19,222.52,55,233.53,55Z"/><path class="cls-1" d="M287.31,54.27h-5.23c-6.86-9.69-13.66-19.31-20.45-30.2h-.07v30.2h-5.77V12.16H261c6.85,9.63,13.65,19.19,20.39,30h.12v-30h5.77Z"/><path class="cls-1" d="M301,37.61c1.68-5.54,3.37-10.65,4.87-17.15H306c1.69,6.5,3.19,11.61,4.75,17.15Zm2.76-25.45L289.23,54.27h6.26l3.67-11.49h12.69l3.31,11.49h8.06L309.81,12.16Z"/><path class="cls-1" d="M325.33,12.16h7.16V48.61h14.26v5.66H325.33Z"/><path class="cls-1" d="M136.33,89.5v17.38a33,33,0,0,1-12,2.59c-12.39,0-20.21-9.62-20.21-22,0-11.49,7.82-21.53,20.45-21.53a18,18,0,0,1,10.23,3.24l-2.35,5a15.68,15.68,0,0,0-7.7-2.23c-7.7,0-12.93,6.08-12.93,15.64,0,10,6,15.89,12.21,15.89a10.7,10.7,0,0,0,5.05-1V89.5Z"/><path class="cls-1" d="M162.14,72.3h-12V83.84H161.9V89.5H150.11v13.59H164.3v5.66H142.89V66.64h19.25Z"/><path class="cls-1" d="M184.39,103.46c-7.52,0-10.16-8.3-10.16-16.37,0-7.76,3-15.16,10.16-15.16s10.17,7.4,10.17,15.16C194.56,95.16,191.91,103.46,184.39,103.46Zm0,6c11,0,17.87-9.81,17.87-22.38,0-11.79-7.58-21.17-17.87-21.17s-17.86,9.38-17.86,21.17C166.53,99.66,173.39,109.47,184.39,109.47Z"/><path class="cls-1" d="M236.91,89.5v17.38a33,33,0,0,1-12,2.59c-12.39,0-20.21-9.62-20.21-22,0-11.49,7.82-21.53,20.45-21.53a18,18,0,0,1,10.23,3.24l-2.35,5a15.65,15.65,0,0,0-7.7-2.23c-7.7,0-12.93,6.08-12.93,15.64,0,10,6,15.89,12.21,15.89a10.7,10.7,0,0,0,5.05-1V89.5Z"/><path class="cls-1" d="M250.75,72.3h3.19c4.27,0,6.67,2.46,6.67,6.79,0,5.65-3.43,8.18-6.86,8.36-.72.06-2.4.12-3,.19ZM269,108.75,260.55,91.3a14.14,14.14,0,0,0,7.28-12.51c0-8.18-5-12.15-13-12.15H243.53v42.11h7.22V92.87H254l6.8,15.88Z"/><path class="cls-1" d="M280.94,92.08c1.69-5.53,3.37-10.64,4.88-17.14h.12c1.68,6.5,3.19,11.61,4.75,17.14Zm2.77-25.44-14.55,42.11h6.25l3.67-11.49h12.69l3.31,11.49h8.06L289.73,66.64Z"/><path class="cls-1" d="M316.68,66.64H305.43v42.11h7.22V92.87h3.25c8.6,0,13.83-7,13.83-14.08C329.73,70.61,324.74,66.64,316.68,66.64Zm-1,20.81c-.74.06-2.51.12-3,.17V72.3h3.25c4.21,0,6.61,2.46,6.61,6.79C322.51,84.74,319.08,87.27,315.66,87.45Z"/><path class="cls-1" d="M363.18,108.75H356V88.48H341v20.27h-7.16V66.64H341V82.82h15V66.76h7.22Z"/><path class="cls-1" d="M370.1,108.75V66.64h7.16v42.11Z"/><path class="cls-1" d="M409.74,74.28a15.11,15.11,0,0,0-7.4-2.35c-7.34,0-12.69,6.08-12.69,15.64,0,10,5.89,15.89,12.87,15.89a13.66,13.66,0,0,0,7.22-2.11l2,5.23a18.28,18.28,0,0,1-9.51,2.89c-12.39,0-20.21-9.62-20.21-22,0-11.49,7.76-21.53,20.33-21.53A17.8,17.8,0,0,1,412,69.16Z"/></svg>