<?xml version="1.0" encoding="utf-8"?>
<!-- Generator: Adobe Illustrator 22.1.0, SVG Export Plug-In . SVG Version: 6.00 Build 0)  -->
<svg version="1.1" id="svg2" xmlns:svg="http://www.w3.org/2000/svg"
	 xmlns="http://www.w3.org/2000/svg" xmlns:xlink="http://www.w3.org/1999/xlink" x="0px" y="0px" viewBox="0 0 150 143.3"
	 style="enable-background:new 0 0 150 143.3;" xml:space="preserve">
<style type="text/css">
	.st0{fill:#FFFFFF;}
</style>
<g id="layer2">
	<path id="path3237" class="st0" d="M42.4,88.9V56.3h6.5v32.6H42.4"/>
	<path id="path3235" class="st0" d="M55,56.3h6.8V74c0,2.8,0.1,4.6,0.3,5.4c0.3,1.3,1,2.4,2.1,3.2c1.1,0.8,2.6,1.2,4.5,1.2
		c1.9,0,3.4-0.4,4.4-1.1c1-0.8,1.6-1.7,1.8-2.8c0.2-1.1,0.3-3,0.3-5.5v-18H82v17.1c0,3.9-0.2,6.7-0.6,8.3c-0.4,1.6-1.1,3-2.1,4.1
		c-1,1.1-2.3,2-4,2.7c-1.7,0.7-3.8,1-6.5,1c-3.2,0-5.7-0.4-7.4-1.1c-1.7-0.7-3-1.7-4-2.8c-1-1.2-1.6-2.4-1.9-3.6
		c-0.4-1.9-0.7-4.6-0.7-8.3V56.3"/>
	<path id="path3233" class="st0" d="M86.1,72.8c0-3.3,0.5-6.1,1.5-8.4c0.7-1.7,1.7-3.1,3-4.5c1.3-1.3,2.7-2.3,4.2-2.9
		c2-0.9,4.3-1.3,6.9-1.3c4.7,0,8.5,1.5,11.3,4.5c1.8,1.9,3.1,4.3,3.7,7.2l-6.8,0.1c-0.4-1.4-1-2.5-1.8-3.4c-1.6-1.8-3.7-2.8-6.4-2.8
		c-2.7,0-4.8,0.9-6.5,2.8c-1.6,1.9-2.5,4.7-2.5,8.4 M92.8,72.6c0,3.7,0.8,6.5,2.5,8.4c1.7,1.9,3.8,2.8,6.4,2.8
		c2.6,0,4.7-0.9,6.4-2.8c0.9-1,1.6-2.4,2-4l6.8,0.2c-0.6,3.2-1.9,5.8-3.8,7.8c-2.8,3-6.6,4.4-11.3,4.4c-4.8,0-8.6-1.5-11.4-4.4
		c-2.8-3-4.2-7-4.2-12.2"/>
	<path id="text2454" class="st0" d="M120.8,88.9V56.3h5.8l14.9,22.6V56.3h6v32.6h-5.7l-15.3-22.8l0.6,22.8H120.8"/>
	<path id="path3244" class="st0" d="M110.9,106.8l21.1-0.1c-12,20.6-34.3,34.4-59.8,34.4c-38.2,0-69.1-31-69.1-69.1
		s31-69.1,69.1-69.1c25.9,0,48.5,14.3,60.4,35.4l-20.8,0C102.3,27.1,88.1,20,72.3,20c-28.7,0-52,23.3-52,52s23.3,52,52,52
		C87.6,124.1,101.4,117.4,110.9,106.8z"/>
</g>
</svg>
