<svg xmlns="http://www.w3.org/2000/svg" xmlns:xlink="http://www.w3.org/1999/xlink" viewBox="0 0 226 57"><defs><style>.cls-1,.cls-15,.cls-16,.cls-17{fill:none;}.cls-2{isolation:isolate;}.cls-3{clip-path:url(#clip-path);}.cls-4{clip-path:url(#clip-path-2);}.cls-5{clip-path:url(#clip-path-3);}.cls-6{mix-blend-mode:screen;}.cls-7{clip-path:url(#clip-path-4);}.cls-8{clip-path:url(#clip-path-5);}.cls-9{fill:#fff;}.cls-10{fill:#f9f9fa;}.cls-11{opacity:0.5;}.cls-12{clip-path:url(#clip-path-6);}.cls-13{clip-path:url(#clip-path-7);}.cls-14{fill:#6d6968;}.cls-15,.cls-16,.cls-17{stroke:#fff;}.cls-15{stroke-miterlimit:10;stroke-width:0.5px;}.cls-16{stroke-width:0.42px;}.cls-17{stroke-width:0.75px;}</style><clipPath id="clip-path" transform="translate(-0.61 0.33)"><rect class="cls-1" x="-0.47" y="6.36" width="128.55" height="45.92"/></clipPath><clipPath id="clip-path-2" transform="translate(-0.61 0.33)"><rect class="cls-1" x="-0.51" y="6.33" width="36.61" height="36.61"/></clipPath><clipPath id="clip-path-3" transform="translate(-0.61 0.33)"><path class="cls-1" d="M17.59,6.33A18.31,18.31,0,1,0,36.1,24.84v-.41A18.3,18.3,0,0,0,18,6.33Z"/></clipPath><clipPath id="clip-path-4" transform="translate(-0.61 0.33)"><rect class="cls-1" x="0.87" y="7.16" width="34.11" height="31.25"/></clipPath><clipPath id="clip-path-5" transform="translate(-0.61 0.33)"><rect class="cls-1" x="0.88" y="7.16" width="34.11" height="31.25"/></clipPath><clipPath id="clip-path-6" transform="translate(-0.61 0.33)"><rect class="cls-1" x="8" y="38.14" width="7.06" height="4.63"/></clipPath><clipPath id="clip-path-7" transform="translate(-0.61 0.33)"><rect class="cls-1" x="8" y="38.14" width="7.06" height="4.63"/></clipPath></defs><title>PP(W)</title><g class="cls-2"><g id="Layer_1" data-name="Layer 1"><g class="cls-3"><g class="cls-4"><g class="cls-5"><g class="cls-6"><g class="cls-7"><g class="cls-8"><path class="cls-9" d="M28.7,12.59h0c.34.05.59-.13.93-.09s.77.31,1.21.36c.19,0,.23-.14.42-.13-.18-.53-.91-.49-1.22-.91.35,0,.08-.29.17-.34-.14,0-.58.13-.57.18s.26.14.35.15c-.18.27-.52.1-.68,0-.39-.35-.3-.23-.7-.18.05.1-.07.15-.11.27.11.4-.15.32.22.72" transform="translate(-0.61 0.33)"/><path class="cls-10" d="M6.54,13c.08.19.53-.48.6-.55.22-.25.83-.37.37.12.07,0,.08,0,.15,0s-.07.13,0,.18.33-.28.41-.36c0,.09.44-.07-.16-.23-.2-.05,0-.57-.32-.36-.07-.19-.86.22-1,.32a4.73,4.73,0,0,0,.77-.18.48.48,0,0,1-.16.13c.2,0,.41.07.63.07-.25.12-.63.06-.86.33a.55.55,0,0,1,.19-.08c-.1.07-.63.49-.56.65" transform="translate(-0.61 0.33)"/><path class="cls-10" d="M32.29,13.46h.08c-.36-.09-.69-.78-1.06-.7.36.07.57.66,1,.71" transform="translate(-0.61 0.33)"/><path class="cls-10" d="M8.07,12.76c0-.06.66,0,.78-.2-.1,0-.8.06-.78.2" transform="translate(-0.61 0.33)"/><path class="cls-10" d="M12.53,7.55h0l-.24,0,.3,0s-.1,0-.09,0" transform="translate(-0.61 0.33)"/><path class="cls-10" d="M13,7.49h0" transform="translate(-0.61 0.33)"/><path class="cls-10" d="M7.35,12.93c0,.06-.08.15,0,.15a2.33,2.33,0,0,0,.58-.16c-.08,0-.57.07-.56,0" transform="translate(-0.61 0.33)"/><path class="cls-10" d="M12.51,9h0" transform="translate(-0.61 0.33)"/><path class="cls-10" d="M6.08,20h0" transform="translate(-0.61 0.33)"/><path class="cls-10" d="M18.49,7.42h0" transform="translate(-0.61 0.33)"/><path class="cls-10" d="M16.44,7.4h0" transform="translate(-0.61 0.33)"/><path class="cls-10" d="M17.06,7.43l.32,0h-.25l-.07,0" transform="translate(-0.61 0.33)"/><path class="cls-10" d="M9.12,8.92s0,0-.07.06.07,0,.07-.06" transform="translate(-0.61 0.33)"/><path class="cls-10" d="M7.6,9s.2,0,.27,0A.8.8,0,0,0,7.6,9" transform="translate(-0.61 0.33)"/><path class="cls-10" d="M11.5,8.73a.25.25,0,0,1,.15-.06.19.19,0,0,0-.15.06" transform="translate(-0.61 0.33)"/><path class="cls-10" d="M7.87,9h0" transform="translate(-0.61 0.33)"/><path class="cls-10" d="M11.06,8.29h0" transform="translate(-0.61 0.33)"/><path class="cls-9" d="M2.66,16.67a2.24,2.24,0,0,1,1-.89c.29-.16.5.28.71.18,0-.07.07-.14.14-.26s0,0-.08,0a2.47,2.47,0,0,1,.36,0c0,.07.7.18.71.2s-.47,1.39-.2,1.42.53-.85.55-1.05c.08-.8.67-1.08,1.33-1.37v0c.17-.11.37-.13.52-.26-.12-.13.06-.09.13-.19s-.06,0-.06-.07A.23.23,0,0,0,8,14.15h0a1.37,1.37,0,0,1,.23-.45s-.09.36-.1.36c.23,0,.27-.38.39-.45,0-.1.61-.34.76-.38,0,0-.19,0-.24,0,.26-.12.62-.1.86-.19-.39,0,.31-.59.55-.54s.68-.27,1-.28c-.05.07,0,.1.07.09-.37,0-.66.49-.39.34s.92-.21,1-.35-.83,0-.44-.51h-.17c.11-.07.32,0,.39-.18s-1,.1-1.06.11c.45-.36,2.62-.3,2.4-1-.06,0-.77.21-.78.12a3.21,3.21,0,0,0,.65-.17c0-.06-.57,0-.45-.21h0a.35.35,0,0,1-.25-.09c.36-.12-.1-.74-.32-.45a.35.35,0,0,0,.1.08c-.09,0-.17,0-.06-.25-.17.33-.9.13-1.14,0-.85-.4-.59.16-1.22.31,0,.3.44.3-.14.54s-.19.29-.43.55c-.21,0-.29,0-.31,0a.15.15,0,0,0,.11,0c0-.06-.05-.06-.12-.05s.26-.24.1-.35c-.5,0-.44-.34-1-.32.17-.17.2-.27-.06-.23.33-.22,1-.42,1.23-.66l-.08,0a1.77,1.77,0,0,0,1-.21c-.15,0-.33,0-.31-.07a1.36,1.36,0,0,0,.5,0,1.93,1.93,0,0,0-.46.26.7.7,0,0,1,.21,0s-.08.05,0,.05a5.06,5.06,0,0,0,.87-.12s-.12,0-.16,0,0,0,0,0-.26-.1-.31-.07v0l.17,0s0,0,.05,0,0-.06,0,0a2.29,2.29,0,0,0,.8-.39c-.08,0-.18,0-.26,0h.28c-.08.06.31,0,.41,0h0a.2.2,0,0,1,.09.05l-.12,0a1.16,1.16,0,0,1,.3,0,.37.37,0,0,0-.27.07s.32.1.33,0c.21.15-.41.27-.24.32-.22.1-.63,0-.78.24,0,0,.68,0,.75,0a1.24,1.24,0,0,0,.74.21c.21-.05-.19-.24-.18-.24.36-.06.35.12.44-.19-.13,0-.16-.1-.25-.09s0,0,.07-.07c.17,0,.51.12.54-.09a4.6,4.6,0,0,0-.49-.18.33.33,0,0,1,.12-.05.2.2,0,0,0-.13,0,.35.35,0,0,1,.11,0,.13.13,0,0,0-.12,0v0c-.37,0-.7-.13-1.1-.14,0,0,.06-.08.06-.09-.06-.16-1,.17-.78.07-.1,0,.24-.09.31-.11a2.16,2.16,0,0,0-.57,0,.8.8,0,0,0,.2-.07,1.29,1.29,0,0,0-.88.24.46.46,0,0,0,.28-.08H10c.1-.06.29,0,.39-.08-.06,0-.44.08-.38.2h.29a.27.27,0,0,1-.3,0c-.11.09.74.09.75.09s-.52.41-.67.28,0-.14.15-.13-.4,0-.38,0-.1-.06.09-.12c-.05,0-.18,0-.19,0L10,8.66c.14-.1-.44-.09-.6,0s.21.06.16.09l-.12.07.13,0c-.07.1-.31.07-.45.18S9,9,9.05,9A6.61,6.61,0,0,1,7.89,9a.6.6,0,0,1-.46.1,2.27,2.27,0,0,0-1.68.37,16.21,16.21,0,0,0-2.16,3A16.68,16.68,0,0,0,.87,19.29c.14,0,.19.55.36.6s.29-.38.38-.06c.11,0,.06.58.11.7a.88.88,0,0,0,.57.52,1.94,1.94,0,0,0,0,.72c0,.28-.21.56-.14.83l.07,0a.18.18,0,0,1,0-.13c.26.09.1,1.42.45,1.56.18.08.2-.78.56-.66.18.07,0,.53.06.65a2.8,2.8,0,0,0,.31-.3c-.06-.21-.07-.8-.46-.63-.81.35-.47-1.07-.31-1.49s.88-1.39-.06-1.44c-.78-.05.12-.78.21-1a1,1,0,0,0,.21-.31c.11-.23.3-.4.41-.63-.88-.15-.91,1-1.73.82-.59-.12.69-2.28.75-2.43h0M12.51,9h0m-5.18,4.1c-.06,0,0-.09,0-.15s.48,0,.56,0a2.33,2.33,0,0,1-.58.16m1.52-.52c-.12.19-.77.14-.78.2,0-.14.68-.2.78-.2m-1.94-.11c.23-.27.61-.21.86-.33-.22,0-.43-.07-.63-.07a.48.48,0,0,0,.16-.13,4.73,4.73,0,0,1-.77.18c.16-.1,1-.51,1-.32.29-.22.12.3.32.36.6.16.2.32.16.23-.08.08-.33.36-.41.36s0-.09,0-.18-.08,0-.15,0c.46-.49-.15-.38-.37-.12-.07.07-.52.74-.6.55s.46-.58.57-.65a.52.52,0,0,0-.2.08" transform="translate(-0.61 0.33)"/><path class="cls-10" d="M12.3,12.06s0,0,0-.06a.7.7,0,0,0-.26.19c0,.07.26.06.31,0-.17,0-.05,0,0-.08" transform="translate(-0.61 0.33)"/><path class="cls-9" d="M13,11.62l-.1,0,0,0h-.14s0-.07.07-.07a.23.23,0,0,0-.24,0s.42-.35.31-.35c-.33,0-.57.47-.88.57,0,0,0,0,0,0s-.16.06-.2.13l.88.07a.27.27,0,0,0-.12.09s.33-.16.33-.15c.15.15.14.38.29,0-.05,0,0,0-.11,0s0-.06.09-.17h-.1c0-.08.07-.13.09-.18a.44.44,0,0,1-.23,0" transform="translate(-0.61 0.33)"/><path class="cls-10" d="M9.41,9.68a1.5,1.5,0,0,0,.36-.11.54.54,0,0,0-.32.07l0,0" transform="translate(-0.61 0.33)"/><path class="cls-10" d="M8.24,8.05A.24.24,0,0,0,8,8.16a.16.16,0,0,0,.17-.07c.1,0,.13,0,.07,0" transform="translate(-0.61 0.33)"/><path class="cls-10" d="M8.3,8.12a.13.13,0,0,0,.12,0H8.29s0,0,0,0" transform="translate(-0.61 0.33)"/><path class="cls-10" d="M8.56,8a.13.13,0,0,0-.12,0s.07,0,.12,0" transform="translate(-0.61 0.33)"/><path class="cls-10" d="M11.8,11.42c.1.08.29.22.43.12a.58.58,0,0,0-.43-.12" transform="translate(-0.61 0.33)"/><path class="cls-10" d="M8.93,8C8.76,8,8.79,8,9,8l0,0h.06a1.53,1.53,0,0,0-.39,0,.29.29,0,0,1,.16,0c-.13,0-.28.1-.19.1A1.05,1.05,0,0,0,8.93,8" transform="translate(-0.61 0.33)"/><path class="cls-10" d="M6.92,9l-.11.09L7,9S7,9,6.92,9" transform="translate(-0.61 0.33)"/><path class="cls-10" d="M9.13,7.93h0" transform="translate(-0.61 0.33)"/><path class="cls-10" d="M7.07,8.73A5.2,5.2,0,0,0,8.5,8.64s0-.05,0-.05.2,0,.28-.05c-.15-.12-.27,0-.17-.2a.89.89,0,0,1,.27-.19c-.28-.09-.49.23-.69.24a1,1,0,0,0-.53-.06c0-.06,0-.08,0-.08a0,0,0,0,0,0-.05l-.1.07h0a3.69,3.69,0,0,0-.41.3.53.53,0,0,1,.28,0,.67.67,0,0,0-.47.15c.06,0,.14,0,.15,0" transform="translate(-0.61 0.33)"/><path class="cls-10" d="M8,8.28l.08,0h0c.31-.07.77.06,1.05-.11,0,0-.37,0-.18-.09,0,0-.39.07-.22.08l-.09,0h.07c-.21.08-.42-.06-.62,0,0,0,0,0,0,0L8,8.19H8a.17.17,0,0,0-.12,0h0a.13.13,0,0,0-.14.07.58.58,0,0,0,.23,0" transform="translate(-0.61 0.33)"/><path class="cls-10" d="M8.06,8.06C8,8.07,8,8.3,8,8.32s.1-.2.09-.26" transform="translate(-0.61 0.33)"/><path class="cls-10" d="M6.21,17s0,.1,0,.09V17" transform="translate(-0.61 0.33)"/><path class="cls-9" d="M13.91,26.75c-.35-.07-.56-.28-.9-.38a2.75,2.75,0,0,0-1,.05c-.06-.27-.15-.26-.39-.35-.62-.26-.32.31-.64.34a.47.47,0,0,1-.44-.71c.17-.22-.44-1.09-.8-1.06s-1.11-.05-1.3-.33-1.11-.45-1.19-.85a.11.11,0,0,0,.12,0c-.24,0-.58.23-.76.17s-.5,0-.59-.09a.86.86,0,0,0-.58-.31c0,.11.14.06.19.16-.58,0-.15.62-.26.63s-.19-.53-.19-.65a.11.11,0,0,0,0-.17c-.11-.14-.19.11-.27.14-.35.16-.93.49-.84,1-.44.19,0,.76.08,1.1,0,.08,0,.14.09.17,0,.36-.48.74-.48,1.1s-.12.47.26.67c0,.25-.27.37-.19.65s.33.31.47.49a10.82,10.82,0,0,0,.92,1.13c.4.42.5,1,1.14,1.08a1.63,1.63,0,0,1,1.26.83c.18.43.25.87.4,1.3A2.47,2.47,0,0,0,8.43,34c.26.63.39-.47.39.17,0,.33.23.13.34.37s.93,1.29.91,1.69c0-.51.16.58.14.51-.27-1,.76.42,1.4.68.05-.26-.77,0-.57-.13s.1-.15,0-.31.19.17.11,0c.05.11-.67-.15-.36-.3.15-.08.64,0,.53-.32s-.27-.43,0-.49.57-.1.68-.34c.29-.66-.34-.48-.51-.91,0,.09.92-.05,1-.34s.24-.8.29-1.22h0a.62.62,0,0,1,.16-.43c-.07-.19-.13-.37-.18-.56s.25-.53.41-.63A1.62,1.62,0,0,0,14,30.18c0-.38-.34-1.25-.21-1.51s.9-1.76.13-1.92" transform="translate(-0.61 0.33)"/><path class="cls-10" d="M6.23,18.87c.12,0,.19-.05.2-.16s-.32.12-.2.16" transform="translate(-0.61 0.33)"/><path class="cls-10" d="M14,8.48h0" transform="translate(-0.61 0.33)"/><path class="cls-9" d="M33.49,21c-.58.11-.8.28-1-.43-.11-.49-1-.82-1.07-1.34a1.48,1.48,0,0,0-.45-.82c-.24-.27-.16-.74-.35-1.07s-.21-.59-.37-.89A4.71,4.71,0,0,1,29.54,15c.16.16.33.62.51.64A1.33,1.33,0,0,0,30,14.53c-.32.08-.6-.11-.91,0a1.55,1.55,0,0,1-1.14,0c-.29-.1-1.47-.78-1.45,0s-1.08-.27-1.36-.36-.81.08-.81-.45c0-.3.11-.52.13-.79a.15.15,0,0,1-.25,0c-.13-.2-.32.07-.46.07l-.89,0a3.2,3.2,0,0,0-1.33.49c-.48.28-.91-.13-1.18.24h0c-.23.33-.52.61-.75.94s-.1.52-.18.78a1.06,1.06,0,0,1-.57.55c-.41.15-.57.62-.74,1s-.25.59-.41.88.08,1,.07,1.39a1.78,1.78,0,0,1-.27.87c-.15.24.05.53.05.84h0a4.71,4.71,0,0,0,.55.7c.36.39.44.92.82,1.3s.62.73,1.08.57a2.14,2.14,0,0,1,.6-.21c.2,0,.35.16.53.16.44,0,.88-.64,1.42-.65s.35.65.69.64c1.1,0,1,.76.7,1.52-.18.49.3,1,.58,1.29a3.45,3.45,0,0,1,.42,1.28,3.39,3.39,0,0,1,.21,1.4c-.1.41-.43.7-.51,1.11A2.68,2.68,0,0,0,25,31.71c.24.49.12.46.45.88s1-.32,1.25.66c0-.13.73.13,1.05,0s.93-.05,1.27-.08c0-.14.3.13.43,0,.3-.42.24.31.57-.08s-.42.35,0,0,.52-.21.53-.84c0-.28-.51-.94.05-1.06.06-.4.46-.58.77-.77.87-.54.19-1.3.54-2.06.13-.28-.29-.6-.29-.9s-.07-.57-.07-.86.24-.43.29-.7c.22-1,1.08-1.29,1.6-2.06s1.35-2.26,1-3.07a9.75,9.75,0,0,1-.95.35" transform="translate(-0.61 0.33)"/><path class="cls-9" d="M17,8.32c0-.13.3.21.37,0a.85.85,0,0,0-.22-.09c.13,0,.35.1.47,0s0,0,0,0a.45.45,0,0,0,.23-.06.25.25,0,0,1-.17,0c0-.07.14,0,.17-.08s-.18-.08-.17-.1.4,0,.45-.07l-.18-.06H18a.7.7,0,0,0-.32,0,6.37,6.37,0,0,0,.85-.31c.19,0,.54,0,.59-.12s-1.66.19-1.75.2l.37-.14h-.16a.61.61,0,0,0,.28-.11,11.16,11.16,0,0,0-2.71.15h.05l-.13,0a.18.18,0,0,0,.14,0c-.07,0-.42-.06-.46,0s0,0,0,0-.16,0-.19,0-1,0-1.09.23a.29.29,0,0,0,.16,0c-.09.18-.49,0-.56.18s.35,0,.39,0-.29,0-.36.09a.29.29,0,0,1,.16,0l-.06,0a.25.25,0,0,0,.17,0h0c.17-.05.8-.05.68.25q.12,0,0,.09a.82.82,0,0,1,.28.11c0,.08-.16,0-.24,0s.19.06.27.07c-.08.11-.31.14-.35.28H14c-.11.15.08.17.13.23-.24.13.42.43.51.44s.46-.54.73-.59a.06.06,0,0,0,0,0c.28,0,.43-.16.69-.23a3.86,3.86,0,0,0,1.16-.19c-.09,0-.48,0-.46-.08s.06,0,.08-.08.48.18.51.08S17,8.36,17,8.32m1.53-.9h0m-1.43,0,.07,0h.25l-.32,0m-.62,0h0" transform="translate(-0.61 0.33)"/><path class="cls-10" d="M6.05,16.82a.23.23,0,0,0-.14.07l.19,0s0-.08,0-.09" transform="translate(-0.61 0.33)"/><path class="cls-9" d="M17.65,8.82l0,0c.48,0,.74.24,1.25,0,0-.07-.17-.17,0-.21-.07,0-.59-.05-.6,0s-.16,0-.21-.05-.21.09-.15-.07a1.72,1.72,0,0,0-.24,0s.2.12.19.11a1.11,1.11,0,0,1-.26,0s.12,0,.19,0l-.09.09" transform="translate(-0.61 0.33)"/><path class="cls-10" d="M12.24,11.33c-.12.1.14,0,0,0" transform="translate(-0.61 0.33)"/><path class="cls-10" d="M4.86,20c-.06,0-.28.28.22.25a.12.12,0,0,0,0-.12v0a.47.47,0,0,0-.2-.15" transform="translate(-0.61 0.33)"/><path class="cls-9" d="M5.65,20.3c.15-.43.53.24.53.24s.31-.38.33-.21c0,0,.55,0,.57,0S7,20.11,7,20s-.07-.45-.33-.49-.27.1-.36,0c-.19-.3-.2.47-.21.55s-.85.05-.43.28M6.08,20h0" transform="translate(-0.61 0.33)"/><path class="cls-10" d="M11.55,12a.07.07,0,0,0-.05,0c0,.05.29.23.38.05a.27.27,0,0,1-.33-.09" transform="translate(-0.61 0.33)"/><path class="cls-9" d="M5.85,19.39c-.11-.16.06-.29-.17-.36a2.06,2.06,0,0,0-.48-.77c-.47-.45-.79-.36-1.22.18.42.06.47-.53.61-.07a.69.69,0,0,1,.49,1c.27,0,.53.37.77,0" transform="translate(-0.61 0.33)"/><path class="cls-10" d="M7.35,20.56c-.06.19.27.28.36.15s-.3-.34-.36-.15" transform="translate(-0.61 0.33)"/><path class="cls-10" d="M7,20H7c0-.11,0-.08,0,0" transform="translate(-0.61 0.33)"/><path class="cls-10" d="M5.83,17.55s0-.21,0-.16,0,.34,0,.16" transform="translate(-0.61 0.33)"/><path class="cls-10" d="M4.31,18.5a.15.15,0,0,0-.12.11c0-.07.06.18.19-.19,0-.05,0,0-.07.08" transform="translate(-0.61 0.33)"/><path class="cls-10" d="M10.2,8.15a.26.26,0,0,0-.1,0s.5,0,.37-.06a.32.32,0,0,0-.27,0" transform="translate(-0.61 0.33)"/><path class="cls-10" d="M24.52,12.43c.08.61.48-.24-.09-.15,0,.06.09.1.09.15" transform="translate(-0.61 0.33)"/><path class="cls-9" d="M20.7,9.82c.36,0,.58-.08.58-.4,0-.05.3-.23-.1-.25-.07,0-.41,0-.28.12,0,0-.28,0-.28.08l.12.1c0,.1-.4.33,0,.35" transform="translate(-0.61 0.33)"/><path class="cls-10" d="M24.6,12.17a1.56,1.56,0,0,0,0-.25s0,0,0-.08a.36.36,0,0,1-.17.07c.05.05.09.24.17.26" transform="translate(-0.61 0.33)"/><path class="cls-10" d="M28.46,14a1.24,1.24,0,0,0-.48-.09.68.68,0,0,0,.48.09" transform="translate(-0.61 0.33)"/><path class="cls-10" d="M23.24,12.44s.17.13.16,0-.08-.1-.16,0" transform="translate(-0.61 0.33)"/><path class="cls-10" d="M21.62,9.36s-.05,0-.05.05h.07s0,0,0-.06h0" transform="translate(-0.61 0.33)"/><path class="cls-10" d="M21.19,8.74c.07,0,.13,0,.13-.08s-.27.08-.13.08" transform="translate(-0.61 0.33)"/><path class="cls-9" d="M21.25,8.79c0,.05.05.06.14.08s0,.1,0,.25h0s0,0,0-.07c.23.12.05,0,.05.2s.28,0,.32,0,0,.11.12.11c0,.15-.2.15-.31.14,0,.17-.14.19-.14.27s.38.1.43,0-.39.15-.47.29A7.56,7.56,0,0,0,22.79,10l-.14,0c.16-.19.16-.36,0-.29l-.08,0c0-.27-.43-.54-.7-.6,0-.07.26-.16.23-.27-.2.1-.34.08-.4-.05l.16-.09c0-.23-.57.07-.45.12s-.16,0-.17,0" transform="translate(-0.61 0.33)"/><path class="cls-10" d="M9.17,8.22c.06,0,.1,0,.11-.05a1,1,0,0,0-.18.06h.07" transform="translate(-0.61 0.33)"/><path class="cls-10" d="M25.39,13a1.37,1.37,0,0,0,.57.35s0-.25,0-.32a2.36,2.36,0,0,0-.59,0" transform="translate(-0.61 0.33)"/><polyline class="cls-10" points="22.55 7.61 22.55 7.61 22.54 7.61 22.55 7.61"/><path class="cls-10" d="M26.51,9.06a.11.11,0,0,0,.12-.12s-.21-.07-.07,0l-.13,0a.08.08,0,0,0,.08.06" transform="translate(-0.61 0.33)"/><path class="cls-10" d="M23.15,7.27s.05.05.12.06a.45.45,0,0,0-.12-.06" transform="translate(-0.61 0.33)"/><path class="cls-10" d="M23.36,7.31h0a1.05,1.05,0,0,0,.37,0l-.25,0s.29,0,.32,0H23.5c0,.21.58,0,.77,0a.12.12,0,0,0,.08,0s-.05,0-.06,0h.21s0,0,0,0l.29,0a1.21,1.21,0,0,0-.44-.1h.05l-.11,0a3.81,3.81,0,0,0,.79-.07,2.77,2.77,0,0,0-1-.07H23.9c0,.06.18.05.21.05h0l0,0a1,1,0,0,0-.29,0v0s-.35-.1-.18,0c0,0-.29,0-.21,0l-.1,0,0,0a.61.61,0,0,0-.3,0l.12,0s0,0,.1,0" transform="translate(-0.61 0.33)"/><path class="cls-10" d="M24.48,9.19a0,0,0,0,1,0,0s0,0,0,0" transform="translate(-0.61 0.33)"/><path class="cls-10" d="M25.83,9.18A.76.76,0,0,1,25.94,9s-.2.07-.11.14" transform="translate(-0.61 0.33)"/><path class="cls-9" d="M22.21,10.27c0,.07,0,.12.05.19s-.64-.1-.63,0,1,.28.75.63h0c0,.49-.11.36-.46.41s-.63-.11-.94-.13-.22.21-.21.39-.25,1.07,0,1.09.38-.08.55.19.57-.12.8,0a1.22,1.22,0,0,0,.54-.43c-.46-.19.58-.65.6-.69-.2-.5.55-.11.78-.22.46-.24.53-.11.88.26-.06-.14,1.54,1.1,1,1.05,0,.21.3-.2.31-.16-.06-.35-.24-.3.23-.18,0-.29-.51-.22-.56-.49a1.26,1.26,0,0,1-.9-.79c0-.2,1,.49,1.07.5,0,.22.52.27.59.62a1.15,1.15,0,0,0,.65.63c-.11.22.05.34.3.37a1,1,0,0,1-.11-.35c.1.09.22.16.34.1-.21-.18-.31-.36-.5-.53,0-.16.28,0,.28,0a.29.29,0,0,0,0-.15c.18,0,.21-.11.4,0s.21-.05.44,0c0,0,.07.07.08.09s-.67,0-.62.16.27.06,0,.3a2.36,2.36,0,0,1,.54.4s0,0-.06,0a4.61,4.61,0,0,0,1.76.14,2.15,2.15,0,0,1,0,.8c0,.08,0,.37-.05.42s.27.56.27.67c0,.76,1.18,1.17,1.34,1.87.1.42.44.67.69,1a7.49,7.49,0,0,1,.7,1.23c.46.89,1,.16,1.77-.05a16.47,16.47,0,0,0-.57-2.45c-.19-.12-.08-.32-.16-.49-.07,0,0,.12-.11.14-.12-.33-.53-.5-.7-.84-.34-.68,1.19-.11,1.4.19-.32-1.09-3.42-4.93-5.62-6.51A36.07,36.07,0,0,0,26,7.39a5.22,5.22,0,0,0-.69,0l.06,0a.65.65,0,0,0-.24,0h.1s-.46,0-.48,0l.09,0-.1,0c.13,0,.18,0,.32,0A4.1,4.1,0,0,1,23.94,8l.15,0c-.2,0-1.06.15-.61.46a.2.2,0,0,0-.09.09h.16c0,.11-.1,0-.09.11,0,.23.66.06.74,0s.28,0,.41.19.26.48.36.49.63-.12.62-.29c-.43-.07.25-.36.24-.39,0-.21-.33-.14-.36-.36s.65-.16.6-.3.55-.35.67-.05a2.84,2.84,0,0,1-.66.25c.06.08.05.17.18.21-.23.28,1.28.23,1.4.36-.32.12-.66-.11-1,.05-.1,0,.25.17.25.27,0-.11-.78.07-.71.49H26v0c-.19-.07-1,.21-1,0-.21,0-.46,0-.67,0,0,.05,0,0,0-.11s.13,0,.14.05c0-.1,0-.13-.12-.14a.38.38,0,0,1,.06-.15A.51.51,0,0,1,24.37,9c-.41.16-.41.16-.18.54.1.18-.31.16-.43.15-.38,0-.34.31-.65.38s-.45.25-.9.22m10.16,3.18h-.08c-.41-.05-.62-.64-1-.71.37-.08.7.61,1.06.7M28.59,11.6c.4,0,.31-.17.7.18.16.14.5.31.68,0-.09,0-.32,0-.35-.15s.43-.15.57-.18c-.09,0,.18.3-.17.34.31.42,1,.38,1.22.91-.19,0-.23.15-.42.13-.44,0-.8-.32-1.21-.36s-.59.14-.93.09h0c-.37-.4-.12-.32-.22-.72,0-.12.16-.17.11-.27" transform="translate(-0.61 0.33)"/><path class="cls-10" d="M24.64,9.49s0,0-.05,0c.2.13.15-.11.28-.13-.16-.26-.45,0-.15.08,0,0,0,.05-.08.05" transform="translate(-0.61 0.33)"/><path class="cls-10" d="M30.19,14a1.59,1.59,0,0,0-.39.1c.05.22.4,0,.39-.1" transform="translate(-0.61 0.33)"/><path class="cls-10" d="M9.92,7.93,9.83,8l.13,0c.15,0,.28,0,.24-.06h.06c-.09-.08-.44,0-.55,0s0,0,0,0h.08a.34.34,0,0,1-.18,0,.85.85,0,0,0,.28,0" transform="translate(-0.61 0.33)"/><path class="cls-10" d="M9.45,8l.09,0c-.07,0,0,0-.12,0s0,0,0,0" transform="translate(-0.61 0.33)"/><path class="cls-10" d="M9.86,8.13a1,1,0,0,0-.23.06c.09,0,.53.08.53-.15,0,0-.35,0-.39,0s0,0,.11,0c-.09.06-.17,0-.26,0l0,0a.47.47,0,0,1,.21,0" transform="translate(-0.61 0.33)"/><path class="cls-10" d="M10.71,8.11c-.28.05.25.05.33.05.28-.16.88.12,1.2-.08h-.05l.08,0a9.58,9.58,0,0,0-1.21,0s-.18,0-.14,0h.18a1.71,1.71,0,0,0-.75,0,.46.46,0,0,0,.21,0q.12-.08.15.06" transform="translate(-0.61 0.33)"/><path class="cls-10" d="M9.29,8.85c.09-.2-.45,0-.34,0-.29,0,.26,0,.34,0" transform="translate(-0.61 0.33)"/><path class="cls-10" d="M9,8.47c.15.21.56.07.72,0H9.66c.11-.08,0,0-.1,0l.24-.08s-.75.06-.43.06c-.12.08-.23,0-.34.08" transform="translate(-0.61 0.33)"/><path class="cls-10" d="M10.77,7.94a.19.19,0,0,0,.12,0,2.19,2.19,0,0,0-.36,0h.24" transform="translate(-0.61 0.33)"/><path class="cls-10" d="M9.65,8.12h0" transform="translate(-0.61 0.33)"/><path class="cls-10" d="M9.43,8.12l0,0,.24,0c-.06,0-.25-.09-.25,0h0l-.05,0a.09.09,0,0,0,.08,0" transform="translate(-0.61 0.33)"/><path class="cls-10" d="M10.62,7.75l.05,0h-.14c-.06,0,.16,0,.09,0" transform="translate(-0.61 0.33)"/><path class="cls-10" d="M11.19,7.83h0" transform="translate(-0.61 0.33)"/><path class="cls-10" d="M11.08,7.74h0" transform="translate(-0.61 0.33)"/><path class="cls-10" d="M10.73,7.89c.1-.12-.33-.09-.22,0-.21,0,.12,0,.22,0" transform="translate(-0.61 0.33)"/><path class="cls-9" d="M11.11,7.73h0l.34,0a1.47,1.47,0,0,0-.36,0,.09.09,0,0,0,.07,0,2.53,2.53,0,0,1,.48,0s0,0,0,0a.61.61,0,0,1,.42,0c-.07,0-.58,0-.36,0l-.25,0c.41,0,1.05.19,1.33-.08h-.15c.07-.06.22,0,.25-.11a2.1,2.1,0,0,0,.42-.09l-.07,0c.06,0,.1,0,.12,0h-.09c.36-.09.75-.08,1.11-.19h-.2s.44,0,.46-.06-.65.05-.39,0a5.52,5.52,0,0,0-2.42.15l.27,0-.14,0c.11,0,.21,0,.31,0a1.45,1.45,0,0,0-.3,0h.18l-.12,0s.1,0,.21,0,0,0-.06,0,.16,0,.14.06c-.22.15-.26,0-.39.06.07,0,.09-.06,0-.06h0c-.09,0-.38-.07-.52-.07s0,0,.08,0h-.24s0,0,0,0a.47.47,0,0,0-.17,0,.28.28,0,0,0,.13,0H11c-.06,0,0,0,.16,0m1.21-.17.24,0h0s.08,0,.09,0l-.3,0m.55-.06h0" transform="translate(-0.61 0.33)"/><path class="cls-10" d="M11.41,7.92a.39.39,0,0,0-.22.08l.22-.08" transform="translate(-0.61 0.33)"/><path class="cls-10" d="M10.73,7.89h0" transform="translate(-0.61 0.33)"/><path class="cls-10" d="M12.11,7.59h0" transform="translate(-0.61 0.33)"/><path class="cls-10" d="M11.87,8.24s.13.07.14.07a1.38,1.38,0,0,0,.45-.05c-.14,0-.45-.12-.59,0" transform="translate(-0.61 0.33)"/></g></g></g></g></g><g class="cls-11"><g class="cls-12"><g class="cls-13"><path class="cls-14" d="M8.09,38.14,8,38.22l.05.05c.57.54,1.13,1.07,1.67,1.6l.8.78a4.38,4.38,0,0,0,.83.72,7.62,7.62,0,0,0,1.9.8c.64.19,1.24.38,1.81.59-.56-.23-1.16-.43-1.79-.64a7.44,7.44,0,0,1-1.88-.83,4.08,4.08,0,0,1-.8-.71c-.26-.26-.52-.53-.79-.79L8.14,38.18Z" transform="translate(-0.61 0.33)"/></g></g></g><path class="cls-15" d="M34.84,32.93c-2.43-.38-6.74.45-7.62.25a20.14,20.14,0,0,1-2.66-1c-.25-.1-.91-.84-1.21-1-.54-.29-1.07-.4-1.69-.67-1.86-.82-2.66.47-2.49.9a5.21,5.21,0,0,0,1.21,1.3l1.23.87a3.16,3.16,0,0,0,1.5,1.17l.25.09.2.15a9.33,9.33,0,0,1,1,1.36,16.39,16.39,0,0,1-2.45,2.22,18,18,0,0,1-6.37.18,8.2,8.2,0,0,1-1.45-.31c-.62-.19-1.23,0-1.73-.44-.73-.58-1.51-.82-2-1.2-1-.81-.58-1.19-1.47-2.3S7,33.23,6.56,33.67c-.63.59-.26,1,.18,2l.09.21c.13.34.26.71.38,1.07a2.68,2.68,0,0,0,.92,1.11l.33.42A16.55,16.55,0,0,0,6.61,37c-.8-.66-.66-1.15-1.38-2s-2.14-1.15-2.42-.73c-.39.57,0,1.24.39,2,0,.06.32-.09.35,0,.1.28.6.52.7.81a6.92,6.92,0,0,0,1,1.92,18.63,18.63,0,0,0,4.44,4.59" transform="translate(-0.61 0.33)"/><path class="cls-9" d="M42.79,40.84l.13-.83-.1-.4s-3.35.5-5,.56a14.55,14.55,0,0,0-5.22-.31,26.73,26.73,0,0,0-4.42,1.23,35.23,35.23,0,0,1-6.88,3.77c-.12,0,10.22-3.74,12.69-3.87,2.94-.15,8.83-.15,8.83-.15" transform="translate(-0.61 0.33)"/><path class="cls-9" d="M11.44,41c.93.37,4,2.13,4,2.13S11.1,41.75,10,40.82a22.24,22.24,0,0,1-2.89-4.15" transform="translate(-0.61 0.33)"/><path class="cls-9" d="M6,34.55c1,.56,1.11,2.7,1.91,3.39" transform="translate(-0.61 0.33)"/><path class="cls-9" d="M2.66,34.28a8,8,0,0,0,2.07,3.47c.81.69,1.23,2.38,1.82,3.14A40.67,40.67,0,0,1,2.77,36c-.51-1.21-.11-1.75-.11-1.75" transform="translate(-0.61 0.33)"/><path class="cls-9" d="M5.28,39.22c.7.61,1.15,1.09,2,1.77s1.07,1.77,2,2.15,4.42,1.25,4.42,1.25-3.6,0-4.75-.93a28.66,28.66,0,0,1-2.84-3.07" transform="translate(-0.61 0.33)"/><path class="cls-9" d="M20.38,32.76l1.23.87a3.16,3.16,0,0,0,1.5,1.17l.25.09.2.15a9.33,9.33,0,0,1,1,1.36c-.06.06-2,2-2.09,2A16.89,16.89,0,0,0,25,37.06a5.47,5.47,0,0,0,.2-1.38c-.2-.61-2.1-1.45-2.75-1.87a21.16,21.16,0,0,0-2.06-1.05" transform="translate(-0.61 0.33)"/></g><g class="cls-3"><path class="cls-9" d="M47.77,11.09A3,3,0,0,1,48.2,11a3.17,3.17,0,0,1,.44,0,3.31,3.31,0,0,1,.44,0,3.11,3.11,0,0,1,.44.06,1.61,1.61,0,0,1,0,.26c0,.15,0,.3.06.47s0,.33.07.48,0,.25,0,.29a4.19,4.19,0,0,1,.5-.65,3.58,3.58,0,0,1,.69-.56,3.64,3.64,0,0,1,.92-.39A4,4,0,0,1,53,10.84a4.68,4.68,0,0,1,1.74.31,3.51,3.51,0,0,1,1.38,1A4.58,4.58,0,0,1,57,13.79a7.66,7.66,0,0,1,.32,2.38,6,6,0,0,1-1.48,4.3A5.6,5.6,0,0,1,51.6,22a7.54,7.54,0,0,1-.94-.06,5.25,5.25,0,0,1-.83-.17v4.89a4.29,4.29,0,0,1-.53.06l-.51,0-.51,0a3.58,3.58,0,0,1-.51-.06ZM49.83,20a3.86,3.86,0,0,0,.81.21,8,8,0,0,0,1.09.06,3.83,3.83,0,0,0,1.37-.24,2.65,2.65,0,0,0,1.07-.74,3.64,3.64,0,0,0,.71-1.26,5.61,5.61,0,0,0,.26-1.8,5,5,0,0,0-.61-2.64,2.21,2.21,0,0,0-2-1,2.62,2.62,0,0,0-1,.19,2.41,2.41,0,0,0-.86.56,2.76,2.76,0,0,0-.6.95,3.68,3.68,0,0,0-.23,1.36Z" transform="translate(-0.61 0.33)"/><path class="cls-9" d="M59,11.09l.44-.06a3.1,3.1,0,0,1,.44,0,3.39,3.39,0,0,1,.45,0,2.49,2.49,0,0,1,.42.06c0,.21.08.48.12.82a6,6,0,0,1,.07.87,4.08,4.08,0,0,1,1.15-1.23A3,3,0,0,1,64,11h.35a2.33,2.33,0,0,1,.3,0,2.44,2.44,0,0,1,.06.39,3.17,3.17,0,0,1,0,.44,4.67,4.67,0,0,1,0,.52c0,.18,0,.36-.07.52a1.32,1.32,0,0,0-.34,0H64a3.47,3.47,0,0,0-1.07.16,2.21,2.21,0,0,0-.91.55,2.71,2.71,0,0,0-.65,1.08,5.48,5.48,0,0,0-.24,1.77v5.31a3.58,3.58,0,0,1-.51.06l-.51,0-.51,0a4.29,4.29,0,0,1-.53-.06Z" transform="translate(-0.61 0.33)"/><path class="cls-9" d="M69.75,22a5.11,5.11,0,0,1-2.18-.43A4.29,4.29,0,0,1,66,20.42a5,5,0,0,1-.92-1.77,8.29,8.29,0,0,1,0-4.42A5,5,0,0,1,66,12.46a4.43,4.43,0,0,1,1.57-1.18,5.11,5.11,0,0,1,2.18-.44,5.19,5.19,0,0,1,2.19.44,4.48,4.48,0,0,1,1.56,1.18,5,5,0,0,1,.92,1.77,8,8,0,0,1,0,4.42,5,5,0,0,1-.92,1.77,4.34,4.34,0,0,1-1.56,1.17,5.19,5.19,0,0,1-2.19.43m0-1.65a2.33,2.33,0,0,0,2.12-1,5.17,5.17,0,0,0,.69-2.89,5.11,5.11,0,0,0-.69-2.88,2.69,2.69,0,0,0-4.23,0A5.2,5.2,0,0,0,67,16.44a5.26,5.26,0,0,0,.68,2.89,2.32,2.32,0,0,0,2.11,1" transform="translate(-0.61 0.33)"/><path class="cls-9" d="M76.79,12.73H75.16l-.08-.29,3.58-4h.17v2.64h2.7a3.24,3.24,0,0,1,.09.79c0,.15,0,.3,0,.44s0,.28-.07.41h-2.7v4.88A10.35,10.35,0,0,0,78.9,19a2,2,0,0,0,.25.8.9.9,0,0,0,.48.38,2.68,2.68,0,0,0,.76.09,4.54,4.54,0,0,0,.66-.05c.21,0,.4-.07.57-.12a3.64,3.64,0,0,1,.17.86c0,.29,0,.55,0,.77a5.84,5.84,0,0,1-.87.15,7.47,7.47,0,0,1-1,.06,3.49,3.49,0,0,1-2.34-.73,3.06,3.06,0,0,1-.84-2.42Z" transform="translate(-0.61 0.33)"/><path class="cls-9" d="M84.34,16.94a3.47,3.47,0,0,0,.91,2.56,3.58,3.58,0,0,0,2.55.81,7.62,7.62,0,0,0,2.81-.52,3.2,3.2,0,0,1,.27.76,4.53,4.53,0,0,1,.12.89,6.73,6.73,0,0,1-1.5.43,10.27,10.27,0,0,1-1.83.15,6.83,6.83,0,0,1-2.49-.41,4.47,4.47,0,0,1-1.72-1.14,4.58,4.58,0,0,1-1-1.75,7.4,7.4,0,0,1-.31-2.22,7.82,7.82,0,0,1,.3-2.21,4.85,4.85,0,0,1,.93-1.79A4.41,4.41,0,0,1,85,11.29a5.18,5.18,0,0,1,2.24-.45,4.65,4.65,0,0,1,1.93.38,3.81,3.81,0,0,1,1.4,1,4.51,4.51,0,0,1,.85,1.56,6.49,6.49,0,0,1,.29,2c0,.2,0,.4,0,.62s0,.4,0,.55Zm5.29-1.54a3.68,3.68,0,0,0-.16-1.11,2.69,2.69,0,0,0-.45-.93,2.3,2.3,0,0,0-.77-.64,2.46,2.46,0,0,0-1.12-.23,2.43,2.43,0,0,0-1.94.77,3.7,3.7,0,0,0-.83,2.14Z" transform="translate(-0.61 0.33)"/><path class="cls-9" d="M100.45,19.92a3,3,0,0,1,.3.73,3.84,3.84,0,0,1,.14.89,7.66,7.66,0,0,1-2.81.48,5.1,5.1,0,0,1-4-1.51,5.84,5.84,0,0,1-1.36-4.07A7.16,7.16,0,0,1,93,14.23a5.27,5.27,0,0,1,1-1.77,4.61,4.61,0,0,1,1.64-1.18,5.54,5.54,0,0,1,2.27-.44,10.12,10.12,0,0,1,1.54.1,6.79,6.79,0,0,1,1.27.34,4.54,4.54,0,0,1-.1.82,3.44,3.44,0,0,1-.26.82,7.22,7.22,0,0,0-2.33-.35,2.77,2.77,0,0,0-2.39,1.06,4.57,4.57,0,0,0-.79,2.81,4.09,4.09,0,0,0,.89,2.93,3.3,3.3,0,0,0,2.46.92,8.2,8.2,0,0,0,1.15-.08,5.15,5.15,0,0,0,1.07-.29" transform="translate(-0.61 0.33)"/><path class="cls-9" d="M102.64,12.73H101l-.09-.29,3.58-4h.17v2.64h2.71a3.84,3.84,0,0,1,.08.79c0,.15,0,.3,0,.44s0,.28-.06.41h-2.71v4.88a10.35,10.35,0,0,0,.07,1.39,2.22,2.22,0,0,0,.25.8.9.9,0,0,0,.48.38,2.73,2.73,0,0,0,.76.09,4.68,4.68,0,0,0,.67-.05c.21,0,.39-.07.56-.12a3.22,3.22,0,0,1,.18.86c0,.29,0,.55,0,.77a6,6,0,0,1-.88.15,7.47,7.47,0,0,1-1,.06,3.52,3.52,0,0,1-2.34-.73,3.06,3.06,0,0,1-.84-2.42Z" transform="translate(-0.61 0.33)"/><path class="cls-9" d="M110.2,16.94a3.47,3.47,0,0,0,.9,2.56,3.61,3.61,0,0,0,2.55.81,7.58,7.58,0,0,0,2.81-.52,3.2,3.2,0,0,1,.27.76,5.46,5.46,0,0,1,.13.89,6.82,6.82,0,0,1-1.51.43,10.23,10.23,0,0,1-1.82.15,6.89,6.89,0,0,1-2.5-.41,4.37,4.37,0,0,1-2.71-2.89A7.73,7.73,0,0,1,108,16.5a7.82,7.82,0,0,1,.3-2.21,5,5,0,0,1,.93-1.79,4.5,4.5,0,0,1,1.57-1.21,5.18,5.18,0,0,1,2.24-.45,4.65,4.65,0,0,1,1.93.38,3.81,3.81,0,0,1,1.4,1,4.35,4.35,0,0,1,.85,1.56,6.19,6.19,0,0,1,.29,2c0,.2,0,.4,0,.62s0,.4,0,.55Zm5.28-1.54a4,4,0,0,0-.15-1.11,2.89,2.89,0,0,0-.46-.93,2.3,2.3,0,0,0-.77-.64,2.39,2.39,0,0,0-1.11-.23,2.43,2.43,0,0,0-1.95.77,3.69,3.69,0,0,0-.82,2.14Z" transform="translate(-0.61 0.33)"/><path class="cls-9" d="M126,6.51a3.56,3.56,0,0,1,.52-.06,4.62,4.62,0,0,1,.5,0,4.7,4.7,0,0,1,.51,0,3.76,3.76,0,0,1,.51.06v15a14.73,14.73,0,0,1-1.77.38,13.23,13.23,0,0,1-2.19.16,7.77,7.77,0,0,1-2.13-.28,4.51,4.51,0,0,1-1.76-.93A4.57,4.57,0,0,1,119,19.15a6.44,6.44,0,0,1-.43-2.52,6.74,6.74,0,0,1,.38-2.35,5.4,5.4,0,0,1,1.09-1.83,5.06,5.06,0,0,1,1.7-1.17,5.57,5.57,0,0,1,2.2-.42,8.11,8.11,0,0,1,1.09.08,8.48,8.48,0,0,1,1,.21Zm0,6.39a5,5,0,0,0-.9-.25,6.66,6.66,0,0,0-1-.08,3.26,3.26,0,0,0-1.48.31,2.94,2.94,0,0,0-1,.85A3.78,3.78,0,0,0,121,15a6.36,6.36,0,0,0-.2,1.62,3.81,3.81,0,0,0,.94,2.83,3.51,3.51,0,0,0,2.5.85c.36,0,.69,0,1,0a4.47,4.47,0,0,0,.81-.16Z" transform="translate(-0.61 0.33)"/><path class="cls-9" d="M47.77,28.62a3,3,0,0,1,.43-.06l.44,0,.44,0a3.11,3.11,0,0,1,.44.06,1.93,1.93,0,0,1,0,.26c0,.15,0,.3.06.47s.1.73.1.77a3.7,3.7,0,0,1,.5-.64,3.28,3.28,0,0,1,.69-.57,3.64,3.64,0,0,1,.92-.39A4,4,0,0,1,53,28.37a4.89,4.89,0,0,1,1.74.31,3.61,3.61,0,0,1,1.38,1A4.58,4.58,0,0,1,57,31.32a7.66,7.66,0,0,1,.32,2.38A6,6,0,0,1,55.82,38a5.6,5.6,0,0,1-4.22,1.55,7.54,7.54,0,0,1-.94-.06,5.83,5.83,0,0,0-.83,0v4.73l-.53.07-.51,0-.51,0-.51-.07Zm2.06,8.93a3.86,3.86,0,0,0,.81.21,8,8,0,0,0,1.09.06,3.83,3.83,0,0,0,1.37-.24,2.65,2.65,0,0,0,1.07-.74,3.64,3.64,0,0,0,.71-1.26,5.61,5.61,0,0,0,.26-1.8,5,5,0,0,0-.61-2.64,2.21,2.21,0,0,0-2-1,2.62,2.62,0,0,0-1,.19,2.41,2.41,0,0,0-.86.56,2.76,2.76,0,0,0-.6.95,3.68,3.68,0,0,0-.23,1.36Z" transform="translate(-0.61 0.33)"/><path class="cls-9" d="M59,24A3.58,3.58,0,0,1,59.5,24L60,24l.51,0A3.58,3.58,0,0,1,61,24v12a3.21,3.21,0,0,0,.1.92,1.24,1.24,0,0,0,.29.51.8.8,0,0,0,.41.23,2.76,2.76,0,0,0,.51.05l.43,0a2,2,0,0,0,.4-.06,6.06,6.06,0,0,1,.19,1.58,3.07,3.07,0,0,1-.71.14l-.77,0a4,4,0,0,1-1.12-.15,2.53,2.53,0,0,1-.92-.48,2.26,2.26,0,0,1-.62-.89,3.8,3.8,0,0,1-.23-1.4Z" transform="translate(-0.61 0.33)"/><path class="cls-9" d="M69.83,32.26a2,2,0,0,0-.62-1.7,2.93,2.93,0,0,0-1.81-.48,8.23,8.23,0,0,0-1.36.11,9.77,9.77,0,0,0-1.24.31,3.2,3.2,0,0,1-.4-1.65A9.45,9.45,0,0,1,66,28.5a10.56,10.56,0,0,1,1.65-.13,4.68,4.68,0,0,1,3.16.95,3.83,3.83,0,0,1,1.08,3V39c-.48.11-1.07.23-1.77.34a12.38,12.38,0,0,1-2.12.18,8,8,0,0,1-1.84-.19,3.71,3.71,0,0,1-1.4-.6,2.83,2.83,0,0,1-.88-1.06,3.53,3.53,0,0,1-.31-1.56,3.35,3.35,0,0,1,.36-1.58,3.22,3.22,0,0,1,1-1.12,4.44,4.44,0,0,1,1.44-.67,6.77,6.77,0,0,1,1.7-.21c.45,0,.81,0,1.1,0s.52,0,.71.07Zm0,2L69,34.2c-.32,0-.59,0-.81,0a3.41,3.41,0,0,0-2,.48,1.65,1.65,0,0,0-.67,1.45,1.71,1.71,0,0,0,.23,1,1.47,1.47,0,0,0,.57.54,1.78,1.78,0,0,0,.76.23,7.33,7.33,0,0,0,.79,0,8.42,8.42,0,0,0,1-.05,5.27,5.27,0,0,0,.9-.15Z" transform="translate(-0.61 0.33)"/><path class="cls-9" d="M73.91,28.62l.45-.06.45,0,.43,0,.42.06c0,.21.09.49.13.84a8.25,8.25,0,0,1,.06.89,4.67,4.67,0,0,1,.53-.71,4.1,4.1,0,0,1,.74-.63,3.88,3.88,0,0,1,1-.46,3.7,3.7,0,0,1,1.18-.18A3.33,3.33,0,0,1,82,29.42a4.79,4.79,0,0,1,.87,3.11V39.3a3.56,3.56,0,0,1-.52.06,4.79,4.79,0,0,1-.52,0,4.7,4.7,0,0,1-.51,0,4,4,0,0,1-.51-.06V33.1a4.12,4.12,0,0,0-.45-2.18,1.63,1.63,0,0,0-1.46-.7,2.87,2.87,0,0,0-1.1.21,2.46,2.46,0,0,0-.92.65,3.14,3.14,0,0,0-.63,1.13A5,5,0,0,0,76,33.89V39.3a3.58,3.58,0,0,1-.51.06,4.44,4.44,0,0,1-.5,0,5.06,5.06,0,0,1-.53,0,3.92,3.92,0,0,1-.52-.06Z" transform="translate(-0.61 0.33)"/><path class="cls-9" d="M86.45,34.47a3.47,3.47,0,0,0,.9,2.56,3.61,3.61,0,0,0,2.55.81,7.58,7.58,0,0,0,2.81-.52,3.2,3.2,0,0,1,.27.76,5.62,5.62,0,0,1,.13.89,6.82,6.82,0,0,1-1.51.43,10.23,10.23,0,0,1-1.82.15,6.85,6.85,0,0,1-2.5-.41A4.47,4.47,0,0,1,85.56,38a4.58,4.58,0,0,1-1-1.75A7.4,7.4,0,0,1,84.26,34a7.82,7.82,0,0,1,.3-2.21A4.85,4.85,0,0,1,85.49,30a4.5,4.5,0,0,1,1.57-1.21,5.18,5.18,0,0,1,2.24-.45,4.65,4.65,0,0,1,1.93.38,3.93,3.93,0,0,1,1.4,1,4.35,4.35,0,0,1,.85,1.56,6.21,6.21,0,0,1,.29,2c0,.19,0,.39,0,.61s0,.4,0,.55Zm5.28-1.54a4,4,0,0,0-.15-1.11,3,3,0,0,0-.46-.93,2.16,2.16,0,0,0-.77-.63,2.8,2.8,0,0,0-3.06.53,3.69,3.69,0,0,0-.82,2.14Z" transform="translate(-0.61 0.33)"/><path class="cls-9" d="M95.83,30.27H94.21l-.08-.3,3.58-4h.16v2.64h2.71a3.84,3.84,0,0,1,.08.79,3.1,3.1,0,0,1,0,.44,3,3,0,0,1-.06.42H97.87v4.87A10.09,10.09,0,0,0,98,36.53a1.84,1.84,0,0,0,.25.8.79.79,0,0,0,.48.38,2.68,2.68,0,0,0,.76.09,4.65,4.65,0,0,0,.66,0,5.38,5.38,0,0,0,.56-.12,3.22,3.22,0,0,1,.18.86c0,.29,0,.55,0,.77a6.08,6.08,0,0,1-.87.15,7.59,7.59,0,0,1-1,.06,3.49,3.49,0,0,1-2.34-.73,3.06,3.06,0,0,1-.85-2.42Z" transform="translate(-0.61 0.33)"/></g><path class="cls-9" d="M102.34,25.64a3.45,3.45,0,0,1,.6-.05,1,1,0,0,1,.7.2.61.61,0,0,1,.19.46.64.64,0,0,1-.46.62h0a.6.6,0,0,1,.36.49,3.62,3.62,0,0,0,.19.66h-.33a3.9,3.9,0,0,1-.16-.58c-.07-.33-.2-.46-.48-.47h-.3V28h-.31Zm.31,1.11H103c.34,0,.55-.19.55-.47s-.23-.45-.56-.45a1.56,1.56,0,0,0-.31,0Z" transform="translate(-0.61 0.33)"/><g class="cls-3"><path class="cls-16" d="M104.7,26.86a1.67,1.67,0,0,1-3.33,0,1.67,1.67,0,1,1,3.33,0Z" transform="translate(-0.61 0.33)"/></g><line class="cls-17" x1="138.89" y1="6.7" x2="138.7" y2="43.27"/><path class="cls-9" d="M150.89,19.35h2.72a3.92,3.92,0,0,1,4.23,4.21,3.92,3.92,0,0,1-4.23,4.22h-2.72ZM153.53,27A3.19,3.19,0,0,0,157,23.56a3.19,3.19,0,0,0-3.45-3.47h-1.82v7Z" transform="translate(-0.61 0.33)"/><path class="cls-9" d="M159.5,19.35h.85v1h-.85Zm0,2.4h.81v6h-.81Z" transform="translate(-0.61 0.33)"/><path class="cls-9" d="M164.4,29.57c1.17,0,2.11-.56,2.11-1.9v-.55c0-.23,0-.43,0-.43h0a2,2,0,0,1-1.91,1c-1.62,0-2.68-1.28-2.68-3.09s1-3,2.61-3a2,2,0,0,1,2,1h0a1.57,1.57,0,0,1,0-.2v-.66h.8v5.89a2.59,2.59,0,0,1-2.9,2.66,4.45,4.45,0,0,1-2-.48l.32-.67A3.68,3.68,0,0,0,164.4,29.57Zm2.12-4.92c0-1.76-.84-2.3-1.91-2.3s-1.86.85-1.86,2.29.79,2.37,2,2.37C165.68,27,166.52,26.42,166.52,24.65Z" transform="translate(-0.61 0.33)"/><path class="cls-9" d="M169.27,19.35h.85v1h-.85Zm0,2.4h.82v6h-.82Z" transform="translate(-0.61 0.33)"/><path class="cls-9" d="M172.31,22.5h-.79v-.68h.8V20.08h.8v1.74h1.51v.68h-1.51v3c0,1.42.9,1.6,1.36,1.6a1,1,0,0,0,.27,0v.73a1.66,1.66,0,0,1-.34,0,2,2,0,0,1-2.1-2.25Z" transform="translate(-0.61 0.33)"/><path class="cls-9" d="M179.3,24.05h.34v-.16a1.36,1.36,0,0,0-1.5-1.56,2.94,2.94,0,0,0-1.71.58l-.38-.62a3.45,3.45,0,0,1,2.15-.69,2.06,2.06,0,0,1,2.25,2.32v3.86h-.78v-.66a3.72,3.72,0,0,1,0-.5h0a2.17,2.17,0,0,1-2,1.3,1.86,1.86,0,0,1-2-1.78C175.61,24.1,178.26,24.05,179.3,24.05Zm-1.51,3.18A2.11,2.11,0,0,0,179.64,25v-.26h-.35c-.95,0-2.84,0-2.84,1.37A1.2,1.2,0,0,0,177.79,27.23Z" transform="translate(-0.61 0.33)"/><path class="cls-9" d="M182.28,19.35h.81v6.82c0,.79.36.91.68.91h.2v.73a1.61,1.61,0,0,1-.3,0c-.5,0-1.39-.16-1.39-1.48Z" transform="translate(-0.61 0.33)"/><path class="cls-9" d="M188.77,19.35h2.49a3.67,3.67,0,0,1,1.59.23,2.24,2.24,0,0,1,1.27,2.17,2.26,2.26,0,0,1-1.6,2.28v0a2.64,2.64,0,0,1,.22.34l1.84,3.39h-1l-1.91-3.55H189.6v3.55h-.83Zm2.83,4.14a1.58,1.58,0,0,0,1.67-1.72,1.56,1.56,0,0,0-.77-1.47,2.31,2.31,0,0,0-1.2-.21h-1.7v3.4Z" transform="translate(-0.61 0.33)"/><path class="cls-9" d="M198.62,21.6a2.52,2.52,0,0,1,2.52,2.79c0,.14,0,.42,0,.42h-4.63a2.27,2.27,0,0,0,2.34,2.38,2.8,2.8,0,0,0,1.83-.73l.37.62a3.44,3.44,0,0,1-2.23.84,3,3,0,0,1-3.15-3.15A2.94,2.94,0,0,1,198.62,21.6Zm1.69,2.53a1.69,1.69,0,0,0-1.71-1.84,2,2,0,0,0-2.08,1.84Z" transform="translate(-0.61 0.33)"/><path class="cls-9" d="M202.7,21.75h.78v.58c0,.27,0,.47,0,.47h0a2.19,2.19,0,0,1,2.09-1.2c1.62,0,2.63,1.3,2.63,3.17s-1.14,3.15-2.7,3.15a2.18,2.18,0,0,1-2-1.15h0a4.34,4.34,0,0,1,0,.53v2.88h-.82Zm2.71,5.45c1.07,0,2-.9,2-2.43s-.78-2.42-1.91-2.42-2,.72-2,2.43C203.49,26,204.16,27.2,205.41,27.2Z" transform="translate(-0.61 0.33)"/><path class="cls-9" d="M212.52,21.6a3.16,3.16,0,1,1-3.19,3.13A3.13,3.13,0,0,1,212.52,21.6Zm0,5.59a2.38,2.38,0,0,0,2.35-2.46,2.35,2.35,0,1,0-4.7,0A2.37,2.37,0,0,0,212.52,27.19Z" transform="translate(-0.61 0.33)"/><path class="cls-9" d="M217.23,21.75H218v1.06a3.77,3.77,0,0,1,0,.48h0a2.05,2.05,0,0,1,1.91-1.6,2,2,0,0,1,.32,0v.81a1.75,1.75,0,0,0-.3,0,1.93,1.93,0,0,0-1.75,1.56,4,4,0,0,0-.17,1.18v2.54h-.82Z" transform="translate(-0.61 0.33)"/><path class="cls-9" d="M221.73,22.5h-.79v-.68h.81V20.08h.8v1.74h1.51v.68h-1.51v3c0,1.42.9,1.6,1.35,1.6a1.17,1.17,0,0,0,.28,0v.73a1.72,1.72,0,0,1-.35,0,2,2,0,0,1-2.1-2.25Z" transform="translate(-0.61 0.33)"/><rect id="_Slice_" data-name="&lt;Slice&gt;" class="cls-1" width="226" height="57"/></g></g></svg>