<svg id="Layer_1" data-name="Layer 1" xmlns="http://www.w3.org/2000/svg" xmlns:xlink="http://www.w3.org/1999/xlink" viewBox="0 0 218 72"><defs><style>.cls-1{fill:none;}.cls-2{clip-path:url(#clip-path);}.cls-3,.cls-4{fill:#fff;}.cls-3{fill-rule:evenodd;}</style><clipPath id="clip-path"><rect class="cls-1" width="218" height="72"/></clipPath></defs><title>WCPA_logo-reversed</title><g class="cls-2"><path class="cls-3" d="M101.55,1.79,92.49,28.21,85.6,1.84a29.55,29.55,0,0,1-8.19,0L87.73,37a11.49,11.49,0,0,1,5,0l9.14-25.71,8.38,25.9a13.4,13.4,0,0,1,5,0L127,1.7a15.36,15.36,0,0,1-4.12,0l-8,26.18L106.39,1.75a10.4,10.4,0,0,1-4.84,0Zm0,0"/><path class="cls-3" d="M157.67,3.45c-1,1.46-1.14,3.45-1.38,5.4-6.91-7.91-15.14-4.59-18.61.42-3.6,5.23-3.34,14-.9,19.18,3.39,7.21,14.2,8.59,20.08,2.37l-.71,4.54c-7.22,4.86-20.37,3.15-26-3.88-4.7-5.86-5.41-19.37,2.46-25.85,6.79-5.6,17.93-5.8,25-2.18Zm0,0"/></g><path class="cls-3" d="M162.69,1.7c.79,11.64.45,23.52,0,35.42a29.54,29.54,0,0,1,8.24,0l-.48-15.25c10.44.06,16.08-3.12,16.19-11-.91-7-3-9.09-14.11-9.09a63,63,0,0,1-9.84-.09Zm8,2.75V18.93c5.22.31,7.77-2.29,7.77-7.38,0-6.14-2.46-7.17-7.77-7.1Zm0,0"/><path class="cls-3" d="M199.34,1.69,185,37.08a16.81,16.81,0,0,1,4.31,0l4.05-10.52h11.77l3.72,10.52a34.37,34.37,0,0,1,8.72,0L203.32,1.69a12.08,12.08,0,0,1-4,0Zm.09,9,4.62,13h-9.64Zm0,0"/><path class="cls-3" d="M83.5,45.35l-2.34,6.72-1.77-6.71a7.92,7.92,0,0,1-2.12,0l2.66,8.94a3,3,0,0,1,1.3,0l2.36-6.54,2.16,6.59a3.44,3.44,0,0,1,1.28,0l3-9a3.76,3.76,0,0,1-1.06,0L86.94,52l-2.19-6.66a2.77,2.77,0,0,1-1.25,0Zm0,0"/><path class="cls-3" d="M139,45.77a3.3,3.3,0,0,0-.36,1.37,2.92,2.92,0,0,0-4.8.11,5.43,5.43,0,0,0-.23,4.88,3.25,3.25,0,0,0,5.18.6l-.18,1.16a5.57,5.57,0,0,1-6.71-1c-1.21-1.49-1.39-4.93.64-6.58a6.4,6.4,0,0,1,6.46-.55Zm0,0"/><path class="cls-3" d="M102.42,45.33a84.43,84.43,0,0,1,0,9,7.46,7.46,0,0,1,2.11,0l-.12-3.87.38,0,2.15,3.94a7.12,7.12,0,0,1,2.21,0l-2.77-4.13a2.5,2.5,0,0,0,2.21-2.58c-.24-1.79-.76-2.32-3.64-2.32a16.35,16.35,0,0,1-2.53,0Zm2.06.7c1.37,0,2,.24,2,1.81a1.67,1.67,0,0,1-2,1.87Zm0,0"/><path class="cls-3" d="M183,61.52l-3.71,9a4.2,4.2,0,0,1,1.12,0l1-2.68h3l1,2.68a8.47,8.47,0,0,1,2.25,0l-3.66-9a3,3,0,0,1-1,0Zm0,2.3,1.19,3.31h-2.49Zm0,0"/><path class="cls-3" d="M207,61.52l-3.72,9a4.2,4.2,0,0,1,1.12,0l1-2.68h3l1,2.68a8.47,8.47,0,0,1,2.25,0l-3.67-9a2.91,2.91,0,0,1-1,0Zm0,2.3,1.19,3.31h-2.48Zm0,0"/><path class="cls-3" d="M151.27,61.84a3.15,3.15,0,0,0-.35,1.37,2.92,2.92,0,0,0-4.8.11,5.4,5.4,0,0,0-.23,4.88,3.25,3.25,0,0,0,5.17.61L150.88,70a5.57,5.57,0,0,1-6.7-1c-1.21-1.5-1.4-4.94.63-6.58a6.41,6.41,0,0,1,6.46-.56Zm0,0"/><path class="cls-3" d="M103.08,61.39a84.81,84.81,0,0,1,0,9,8,8,0,0,1,2.13,0l-.12-3.88c2.69,0,4.14-.8,4.17-2.8-.23-1.79-.76-2.31-3.64-2.31a16.44,16.44,0,0,1-2.54,0Zm2.08.7v3.69a1.67,1.67,0,0,0,2-1.88c0-1.56-.63-1.83-2-1.81Zm0,0"/><path class="cls-3" d="M110.59,61.4a81.88,81.88,0,0,1,0,9,7.85,7.85,0,0,1,2.11,0l-.12-3.87.38,0,2.15,3.94a7.12,7.12,0,0,1,2.21,0l-2.77-4.13a2.49,2.49,0,0,0,2.2-2.58c-.23-1.79-.75-2.32-3.63-2.32a16.34,16.34,0,0,1-2.53,0Zm2.06.7c1.37,0,2,.24,2,1.81a1.67,1.67,0,0,1-2,1.87Zm0,0"/><path class="cls-3" d="M131.24,70.45a4.31,4.31,0,0,1,2,0l-.12-8.16a11,11,0,0,1,2.2.14V61.31h-6.37V62.4a10.49,10.49,0,0,1,2.41-.14Zm0,0"/><path class="cls-3" d="M154.34,70.45a4.31,4.31,0,0,1,2,0l-.12-8.16a11.06,11.06,0,0,1,2.21.14V61.31h-6.37V62.4a10.46,10.46,0,0,1,2.41-.14Zm0,0"/><path class="cls-3" d="M189.19,61.4a87.15,87.15,0,0,1,0,9,7.85,7.85,0,0,1,2.11,0l-.12-3.87.38,0,2.15,3.94a7.12,7.12,0,0,1,2.21,0l-2.77-4.13a2.49,2.49,0,0,0,2.2-2.58c-.23-1.79-.76-2.32-3.63-2.32a16.34,16.34,0,0,1-2.53,0Zm2.06.7c1.37,0,2,.24,2,1.81a1.67,1.67,0,0,1-2,1.87Zm0,0"/><path class="cls-3" d="M175.94,45.36a3.29,3.29,0,0,0,1.84,0v9a3.45,3.45,0,0,0-1.91,0Zm0,0"/><path class="cls-3" d="M194,45.36a3.29,3.29,0,0,0,1.84,0v9a3.41,3.41,0,0,0-1.9,0Zm0,0"/><g class="cls-2"><path class="cls-3" d="M37.54,56.34c3-3.35,7.67-1.92,11.69-.76,3.43.78,5,.45,6.3-.14.83-.44.87,0,.66.38C55,58.11,49,63.4,42.32,63.21c-1.77,0-4.91-1.17-5.59,1.61-.43,2.09-1.82,2.32-3.5,2a3.11,3.11,0,0,1,1.27-1.28,6.58,6.58,0,0,1-3.12,0c1.65-2.08,2.15-4,1-4.69-4.17-1.79-6.22-5-8.29-8.1-1.21-1.83-1.66-4.43-1.61-7.52-.09-.68.47-.79.9-.2,1.56,2.15,4.6,4.21,9.66,5.69.81.19,4.7,2,4.5,5.63Zm-20,8c4.07-.92,9,.15,14,2.27a15.65,15.65,0,0,0,14.6-.06c-5,5-14.06,3.8-18.85,1.47a3,3,0,0,0,1.81-.54A23.15,23.15,0,0,1,23.5,66a13.44,13.44,0,0,0-6-1.57Zm33.08-.94c-.17,4.85-3.76,6-7.7,6.22,4.16-1.48,6.38-3.68,7.7-6.22ZM16.17,63.3c2.44-2.61,5.86-2.83,8.24.34a13.92,13.92,0,0,0-8.24-.34ZM35.65,43.08A183.38,183.38,0,0,0,1.52,46.36a36,36,0,0,0,68.89,0,182.08,182.08,0,0,0-34.76-3.33Zm0,0"/><path class="cls-3" d="M36,0A36,36,0,0,0,.75,43.36,186.58,186.58,0,0,1,28.83,40.1c1.65-.65,3-1.93,3.07-6.3l0-3.78c-.29-2.6-2.34-5.34-3.67-6.91a15.83,15.83,0,0,1-3-4.88,11.08,11.08,0,0,0-1.58-3,5.25,5.25,0,0,1-.51-2.67c0-.32.41-.63.44-.05.48,1.36.56,3.06,1.25,1.71.34-.75.58,0,.4.37-.33,1,.48,1.85,1.28,3.08,2.13,2.3,4.41,5,6.19,6.53,2,1.73,4.08,1.29,6.12-.14,2.28-1.41,4.19-4.06,6.21-6.39.8-1.23,1.41-2.1,1.08-3.08-.18-.35.05-1.4.4-.65.69,1.35.71-.82,2.15-1.24.49-.12.57.35.35.44a5.76,5.76,0,0,0-1.38,2,27.88,27.88,0,0,0-1.1,3,15.79,15.79,0,0,1-3,4.88c-1.33,1.57-3.78,4.31-4.07,6.91l0,3.78c.06,4.32,1.42,5.62,3,6.28l0,0a183.65,183.65,0,0,1,28.26,3.26l.26.07A36,36,0,0,0,36,0ZM28.3,27.88c-2.21,0-7.83.84-7-7-3.58-5.29-.85-9.59,1-11a6.35,6.35,0,0,0-.9,2.7c1.75-3.54,5.36-2.41,7.39-1.7,1.86-6.06,10.65-8.36,13.92-.76C43,2.39,35.35-.25,31,4.21c.93-.42,2-1,2.42-.8a9.05,9.05,0,0,0-4.88,6C21.21,4,11.83,14.15,20.16,20.83c-3.27,4.65,1.88,10.6,8.14,7.05Zm6.39-3.5a1.69,1.69,0,0,0,2.31,0c1.36-1.6,1.93-3.36.28-5.59a2.15,2.15,0,0,0-2.87,0c-1.65,2.23-1.08,4,.28,5.59ZM43.88,9.51C48,7.78,56.19,12,50.6,17.75c2.45,6,1,10.44-8.76,10,8.43,4.32,15.85-3.8,10-10,4-3.07,3-5.8-.19-8.38a3,3,0,0,1,1.75.62,6.12,6.12,0,0,0-9.56-.48Zm0,0"/></g><path class="cls-3" d="M145.34,45.14a5.79,5.79,0,0,0-3.82,1.17c-2,1.65-1.85,5.1-.64,6.59a5.72,5.72,0,0,0,4.22,1.69,5.46,5.46,0,0,0,4.15-1.69c1.21-1.49,1.39-4.94-.63-6.59a5,5,0,0,0-3.28-1.17Zm-.17.82a2.74,2.74,0,0,1,2.13,1.29,5.38,5.38,0,0,1,.24,4.87,2.73,2.73,0,0,1-5,0,5.19,5.19,0,0,1,.23-4.87A3,3,0,0,1,145.17,46Zm0,0"/><path class="cls-3" d="M203,45.14a5.79,5.79,0,0,0-3.82,1.17c-2,1.65-1.85,5.1-.64,6.59a5.71,5.71,0,0,0,4.22,1.69,5.46,5.46,0,0,0,4.15-1.69c1.21-1.49,1.39-4.94-.63-6.59A5,5,0,0,0,203,45.14Zm-.17.82A2.77,2.77,0,0,1,205,47.25a5.41,5.41,0,0,1,.23,4.87,2.73,2.73,0,0,1-5,0,5.17,5.17,0,0,1,.24-4.87A3,3,0,0,1,202.84,46Zm0,0"/><path class="cls-3" d="M123.51,61.15a5.73,5.73,0,0,0-3.82,1.17c-2,1.64-1.85,5.09-.64,6.58a5.69,5.69,0,0,0,4.23,1.69,5.38,5.38,0,0,0,4.14-1.69c1.21-1.49,1.4-4.93-.63-6.58a5,5,0,0,0-3.28-1.17Zm-.17.82a2.77,2.77,0,0,1,2.14,1.28,5.4,5.4,0,0,1,.23,4.88,2.74,2.74,0,0,1-5,0,5.19,5.19,0,0,1,.24-4.88A3,3,0,0,1,123.34,62Zm0,0"/><path class="cls-3" d="M82.6,61.15a5.75,5.75,0,0,0-3.82,1.17c-2,1.64-1.84,5.09-.64,6.58a5.69,5.69,0,0,0,4.23,1.69,5.36,5.36,0,0,0,4.14-1.69c1.21-1.49,1.4-4.93-.63-6.58a5,5,0,0,0-3.28-1.17Zm-.17.82a2.77,2.77,0,0,1,2.14,1.28,5.4,5.4,0,0,1,.23,4.88,2.74,2.74,0,0,1-5,0,5.19,5.19,0,0,1,.24-4.88A3,3,0,0,1,82.43,62Zm0,0"/><path class="cls-3" d="M96,45.14a5.82,5.82,0,0,0-3.82,1.17c-2,1.65-1.84,5.1-.63,6.59a5.71,5.71,0,0,0,4.22,1.69,5.46,5.46,0,0,0,4.15-1.69c1.2-1.49,1.39-4.94-.64-6.59A5,5,0,0,0,96,45.14Zm-.16.82a2.76,2.76,0,0,1,2.13,1.29,5.41,5.41,0,0,1,.24,4.87,2.73,2.73,0,0,1-5,0,5.14,5.14,0,0,1,.23-4.87A3,3,0,0,1,95.79,46Zm0,0"/><path class="cls-3" d="M120.54,45.31a6.33,6.33,0,0,0-1.24,0,10.24,10.24,0,0,1-1.92,0,87.15,87.15,0,0,1,0,9,7.67,7.67,0,0,1,2,0c2.31.33,4,.07,5.65-1.43,1.21-1.49,1.56-4.94-.47-6.59a5.8,5.8,0,0,0-4-1Zm.35.72a3,3,0,0,1,2.41,1.22,5.41,5.41,0,0,1,.22,4.87,3.16,3.16,0,0,1-4,1.36l0-7.14a2.6,2.6,0,0,1,1.43-.31Zm0,0"/><path class="cls-3" d="M170,61.34a7.24,7.24,0,0,0-1.24,0,10.35,10.35,0,0,1-1.93,0,81.88,81.88,0,0,1,0,9,7.74,7.74,0,0,1,2,0c2.31.33,4,.07,5.65-1.43,1.21-1.49,1.56-4.94-.47-6.59a5.8,5.8,0,0,0-4.05-1Zm.35.72a3,3,0,0,1,2.41,1.22,5.43,5.43,0,0,1,.22,4.88,3.17,3.17,0,0,1-4,1.36l0-7.15a2.6,2.6,0,0,1,1.43-.31Zm0,0"/><path class="cls-3" d="M165,66.24V65.17a20,20,0,0,1-2.91.1V62.05a10.85,10.85,0,0,1,3,.24v-1h-4.9a89.89,89.89,0,0,1,0,9.14h4.9v-1a10.85,10.85,0,0,1-3,.24V66.14a20,20,0,0,1,2.91.1Zm0,0"/><path class="cls-3" d="M141.73,66.24V65.17a20.15,20.15,0,0,1-2.92.1V62.05a10.82,10.82,0,0,1,3,.24v-1h-4.9a87.08,87.08,0,0,1,0,9.14h4.9v-1a10.82,10.82,0,0,1-3,.24V66.14a20.15,20.15,0,0,1,2.92.1Zm0,0"/><path class="cls-3" d="M202.21,66.24V65.17a20,20,0,0,1-2.91.1V62.05a10.82,10.82,0,0,1,3,.24v-1h-4.9a87.08,87.08,0,0,1,0,9.14h4.9v-1a10.82,10.82,0,0,1-3,.24V66.14a20,20,0,0,1,2.91.1Zm0,0"/><path class="cls-3" d="M89.14,61.31c0,3,0,6-.23,9.09h1.21a55.59,55.59,0,0,1-.05-6.46l5.87,6.46h1l.17-9.06H95.94a34.92,34.92,0,0,1,.21,6.48l-5.8-6.51Zm0,0"/><path class="cls-3" d="M209.7,45.36c-.06,3,0,6-.24,9.09h1.2a55.78,55.78,0,0,1,0-6.47l5.87,6.47h1l.17-9.07h-1.21a35.06,35.06,0,0,1,.21,6.49l-5.8-6.51Zm0,0"/><path class="cls-3" d="M112.58,45.22h-1.92a86.89,86.89,0,0,1,0,9.13h4.91v-1a10.92,10.92,0,0,1-3,.23q-.08-4.19,0-8.37Zm0,0"/><path class="cls-3" d="M151.08,54.59a72.17,72.17,0,0,0,1.51-9.23h.95l2.94,6h.42l3-6h1.19q.3,4.55,1,9.18h-2.22a55.49,55.49,0,0,0-.34-6.34l-3.26,6.41-3.32-6.18a41.3,41.3,0,0,0-.52,6.16Zm0,0"/><path class="cls-3" d="M163.05,54.59a70.48,70.48,0,0,0,1.52-9.23h1l2.93,6h.43l3-6h1.19c.2,3,.54,6.09,1,9.18h-2.22a57.87,57.87,0,0,0-.34-6.34l-3.26,6.41-3.32-6.18a41.3,41.3,0,0,0-.52,6.16Zm0,0"/><path class="cls-4" d="M181.9,48.27l1.4.81c2.14,1.17,2.3,3,.74,4.62-1.36,1.38-3.66,1-4.16.13-.34-.51.19-2,.81-.73.18,1.63,4.51.4,2.38-1.68l-1.37-.87c-1.85-.87-2.7-2.94-1.14-4.52,1.36-1.38,3.66-1,4.15-.13a.72.72,0,0,1,0,.71c-.2.39-.64.64-.94,0-.19-1.63-4-.44-1.84,1.64Zm0,0"/><g class="cls-2"><path class="cls-4" d="M188.62,48.27l1.4.81c2.15,1.17,2.3,3,.74,4.62-1.36,1.38-3.66,1-4.16.13-.34-.51.19-2,.81-.73.18,1.63,4.51.4,2.38-1.68l-1.37-.87c-1.85-.87-2.7-2.94-1.14-4.52,1.36-1.38,3.67-1,4.15-.13a.72.72,0,0,1,0,.71c-.2.39-.64.64-.95,0-.18-1.63-4-.44-1.84,1.64Zm0,0"/><path class="cls-4" d="M214.78,64.31l1.4.81c2.14,1.17,2.3,3,.73,4.61-1.36,1.38-3.66,1-4.15.14-.35-.51.18-2,.81-.74.18,1.64,4.5.41,2.37-1.67l-1.37-.88c-1.84-.87-2.7-2.93-1.13-4.52,1.36-1.38,3.66-1,4.15-.13a.72.72,0,0,1,0,.71c-.2.4-.64.64-.94,0-.19-1.64-4-.44-1.84,1.64Zm0,0"/></g></svg>