<svg xmlns="http://www.w3.org/2000/svg" width="219.246" height="38.604" viewBox="0 0 219.246 38.604">
  <g id="Main_Logo" data-name="Main Logo" transform="translate(0 0.002)">
    <g id="Components-styled_D_" data-name="Components-styled(D)">
      <g id="PP-logo2-01">
        <g id="Group" transform="translate(0 0.756)">
          <g id="Shape">
            <path id="Path_2" data-name="Path 2" d="M28.6,6.3h0c.3.1.6-.1.9-.1a5.638,5.638,0,0,1,1.2.4c.2,0,.2-.1.4-.1C31,6,30.3,6,30,5.6c.3,0,.1-.3.2-.3-.1,0-.6.1-.6.2s.3.1.3.2c-.2.3-.5.1-.7,0-.4-.3-.3-.2-.7-.2,0,.1-.1.1-.1.3.1.2-.1.1.2.5" transform="translate(-0.8 -0.856)" fill="#fff"/>
            <path id="Path_3" data-name="Path 3" d="M6.5,6.8c.1.2.5-.5.6-.6.2-.2.8-.3.3.1h.1c0,.1-.1.1,0,.2.1,0,.3-.3.4-.4,0,.1.4-.1-.2-.2-.2-.1,0-.6-.3-.4-.1-.2-.9.2-1,.3a2.353,2.353,0,0,0,.8-.2c0,.2-.1.2-.1.2.2,0,.4.1.6.1-.2.1-.6,0-.9.3A.349.349,0,0,0,7,6.1c-.1.1-.6.5-.5.7" transform="translate(-0.8 -0.856)" fill="#f9f9fa"/>
            <path id="Path_4" data-name="Path 4" d="M32.2,7.2h0c-.3-.1-.6-.8-1-.7.4.1.6.7,1,.7" transform="translate(-0.8 -0.856)" fill="#f9f9fa"/>
            <path id="Path_5" data-name="Path 5" d="M8,6.5c0-.1.7,0,.8-.2-.1,0-.8.1-.8.2" transform="translate(-0.8 -0.856)" fill="#f9f9fa"/>
            <path id="Path_6" data-name="Path 6" d="M12.5,1.3h0" transform="translate(-0.8 -0.856)" fill="#f9f9fa"/>
            <path id="Path_7" data-name="Path 7" d="M12.9,1.2h0" transform="translate(-0.8 -0.856)" fill="#f9f9fa"/>
            <path id="Path_8" data-name="Path 8" d="M7.3,6.7c0,.1-.1.2,0,.2a2.073,2.073,0,0,0,.6-.2c-.1,0-.6.1-.6,0" transform="translate(-0.8 -0.856)" fill="#f9f9fa"/>
            <path id="Path_9" data-name="Path 9" d="M18.4,1.2h0" transform="translate(-0.8 -0.856)" fill="#f9f9fa"/>
            <path id="Path_10" data-name="Path 10" d="M16.4,1.2h0" transform="translate(-0.8 -0.856)" fill="#f9f9fa"/>
            <path id="Path_11" data-name="Path 11" d="M17,1.2h0" transform="translate(-0.8 -0.856)" fill="#f9f9fa"/>
            <path id="Path_12" data-name="Path 12" d="M9.1,2.7h0" transform="translate(-0.8 -0.856)" fill="#f9f9fa"/>
            <path id="Path_13" data-name="Path 13" d="M7.5,2.7h0" transform="translate(-0.8 -0.856)" fill="#f9f9fa"/>
            <path id="Path_14" data-name="Path 14" d="M11.4,2.5l.1-.1-.1.1" transform="translate(-0.8 -0.856)" fill="#f9f9fa"/>
            <path id="Path_15" data-name="Path 15" d="M2.6,10.4a2.189,2.189,0,0,1,1-.9c.3-.2.5.3.7.2,0-.1.1-.1.1-.3h.3c0,.1.7.2.7.2.1.1-.4,1.4-.2,1.4.3,0,.5-.9.5-1.1.1-.8.7-1.1,1.3-1.4H7c.2-.1.4-.1.5-.3a.494.494,0,0,0,.3-.1A.1.1,0,0,1,7.7,8c.1,0,.2,0,.2-.1h0a1.466,1.466,0,0,1,.2-.4L8,7.9c.2,0,.3-.4.4-.5-.1-.1.6-.4.7-.4H8.9c.3-.1.6-.1.9-.2-.4,0,.3-.6.5-.5.2,0,.7-.3,1-.3-.1.1,0,.1.1.1-.4,0-.7.5-.4.3.2-.1.9-.2,1-.4,0-.1-.8,0-.4-.5h-.2c.1-.1.3,0,.4-.2s-1,.1-1.1.1c.4-.4,2.6-.3,2.4-1-.1,0-.8.2-.8.1.2-.1.6-.1.6-.2.1-.1-.6,0-.4-.2-.1,0-.2-.1-.3-.1.4-.1-.1-.7-.3-.4l.1.1c-.1,0-.2-.1-.1-.2-.2.3-.9.1-1.1,0-.8-.4-.6.2-1.2.3,0,.3.4.3-.1.5s-.2.3-.5.6H8.8c.1-.1-.1-.1-.1,0,0-.1.3-.2.1-.4-.5,0-.4-.3-1-.3C8,4,8,3.9,7.7,4c.3-.2,1-.4,1.2-.7H8.8c.3,0,.8,0,1-.2-.1,0-.3,0-.3-.1H10a2.186,2.186,0,0,0-.5.3h.2s-.1.1,0,.1c.2,0,.6-.1.9-.1h-.2c0-.1-.3-.1-.3-.1h.3a5.938,5.938,0,0,0,.8-.4h0c-.1.1.3,0,.4,0h.3a.367.367,0,0,0-.3.1s.3.1.3,0c.2.1-.4.3-.2.3-.2.1-.6,0-.8.2h.7c.2.1.5.3.7.2.2,0-.2-.2-.2-.2.4-.1.4.1.4-.2-.1,0-.2-.1-.3-.1,0-.1.1,0,.1-.1.2,0,.5.1.5-.1l-.5-.2h0c-.4,0-.7-.1-1.1-.1l.1-.1c-.1-.2-1,.2-.8.1-.1,0,.2-.1.3-.1h-.6c.1,0,.1,0,.2-.1a1.344,1.344,0,0,0-.9.2.367.367,0,0,0,.3-.1H9.7c.1-.1.3,0,.4-.1-.1,0-.4.1-.4.2H10a.188.188,0,0,1-.3,0c-.1.1.7.1.8.1-.1,0-.5.4-.7.3,0-.1,0-.1.2-.1.1-.1-.4,0-.4,0,.1-.1-.1-.1.1-.1H9.5c.1,0,.1,0,.2-.1s-.4-.1-.6,0l.2.1a.1.1,0,0,0-.1.1h.1c-.1.1-.3.1-.4.2h0a4.744,4.744,0,0,1-1.2,0c0-.3-.2-.3-.3-.3a2.414,2.414,0,0,0-1.7.4A15.813,15.813,0,0,0,3.5,6.1,17.194,17.194,0,0,0,.8,13c.1,0,.2.5.4.6.1,0,.3-.4.4-.1.1,0,.1.6.1.7a.634.634,0,0,0,.6.5,1.634,1.634,0,0,0,0,.7c0,.3-.2.6-.1.8h.1v-.1c.3.1.1,1.4.4,1.6.2.1.2-.8.6-.7.2.1,0,.5.1.7l.3-.3c-.1-.2-.1-.8-.5-.6-.8.4-.5-1.1-.3-1.5.1-.4.8-1.3-.2-1.4-.8,0,.1-.8.2-1,.1-.1.1-.2.2-.3.1-.2.3-.4.4-.6-.9-.2-.9,1-1.7.8-.6-.1.7-2.2.8-2.4h0M7.3,6.8c-.1,0,0-.1,0-.2,0,.1.5,0,.6,0a2.073,2.073,0,0,1-.6.2m1.5-.5c-.1.2-.8.2-.8.2,0-.1.7-.2.8-.2m-2-.1c.3-.3.7-.2.9-.3-.2,0-.4-.1-.6-.1.1,0,.1-.1.2-.1a1.884,1.884,0,0,0-.8.2c.2-.1,1-.5,1-.3.3-.2.1.3.3.4.6.1.2.2.2.1l-.4.4V6.3H7.5c.4-.4-.2-.3-.4-.1-.1.1-.5.8-.6.6s.4-.6.5-.7a.349.349,0,0,1-.2.1" transform="translate(-0.8 -0.856)" fill="#fff"/>
            <path id="Path_16" data-name="Path 16" d="M12.2,5.8h0c-.1,0-.2.1-.3.1,0,.1.3.1.3-.1-.1.1,0,.1,0,0" transform="translate(-0.8 -0.856)" fill="#f9f9fa"/>
            <path id="Path_17" data-name="Path 17" d="M12.9,5.4h-.2a.1.1,0,0,1,.1-.1h-.2s.4-.3.3-.4c-.3,0-.6.5-.9.6h0c0,.1-.2.1-.2.1s.8.1.9.1l-.1.1s.3-.2.3-.1c.2.2.1.4.3,0h-.1c0-.1,0-.1.1-.2h-.1c0-.1.1-.1.1-.2a.367.367,0,0,1-.3.1" transform="translate(-0.8 -0.856)" fill="#fff"/>
            <path id="Path_18" data-name="Path 18" d="M9.4,3.4c.1,0,.3-.1.4-.1-.2,0-.3.1-.4.1h0" transform="translate(-0.8 -0.856)" fill="#f9f9fa"/>
            <path id="Path_19" data-name="Path 19" d="M8.2,1.8c-.1,0-.2,0-.2.1a.31.31,0,0,0,.2-.1h0" transform="translate(-0.8 -0.856)" fill="#f9f9fa"/>
            <path id="Path_20" data-name="Path 20" d="M8.2,1.9h0" transform="translate(-0.8 -0.856)" fill="#f9f9fa"/>
            <path id="Path_21" data-name="Path 21" d="M8.5,1.8h0" transform="translate(-0.8 -0.856)" fill="#f9f9fa"/>
            <path id="Path_22" data-name="Path 22" d="M11.7,5.2c.1.1.3.2.4.1-.1-.1-.1-.2-.4-.1" transform="translate(-0.8 -0.856)" fill="#f9f9fa"/>
            <path id="Path_23" data-name="Path 23" d="M8.9,1.7c-.2.1-.2,0,0,0h0c.1,0,.1,0,.1-.1H8.6c.1.1.1.1.3.1-.2,0-.4.1-.3.1a.367.367,0,0,0,.3-.1" transform="translate(-0.8 -0.856)" fill="#f9f9fa"/>
            <path id="Path_24" data-name="Path 24" d="M6.9,2.7l-.1.1a.1.1,0,0,0,.1-.1h0" transform="translate(-0.8 -0.856)" fill="#f9f9fa"/>
            <path id="Path_25" data-name="Path 25" d="M9.1,1.7h0" transform="translate(-0.8 -0.856)" fill="#f9f9fa"/>
            <path id="Path_26" data-name="Path 26" d="M7,2.5a3.437,3.437,0,0,0,1.4-.1h0a.367.367,0,0,0,.3-.1c-.2-.1-.3,0-.2-.2l.3-.2c-.3-.1-.5.2-.7.2A2.034,2.034,0,0,0,7.6,2V1.8a.1.1,0,0,0-.1.1h0l-.4.4h.3a.551.551,0,0,0-.5.2H7" transform="translate(-0.8 -0.856)" fill="#f9f9fa"/>
            <path id="Path_27" data-name="Path 27" d="M8,2H8c.4-.1.8,0,1.1-.1,0,0-.4,0-.2-.1,0,0-.4.1-.2.1h0c-.2.1-.4,0-.6,0h0C8,1.9,8,1.9,8,2H8c-.1-.1-.1-.1-.2,0H8c-.2,0-.2,0-.3.1A.367.367,0,0,0,8,2" transform="translate(-0.8 -0.856)" fill="#f9f9fa"/>
            <path id="Path_28" data-name="Path 28" d="M8,1.8c-.1,0-.1.2-.1.3.1,0,.1-.2.1-.3" transform="translate(-0.8 -0.856)" fill="#f9f9fa"/>
            <path id="Path_29" data-name="Path 29" d="M6.1,10.7h0" transform="translate(-0.8 -0.856)" fill="#f9f9fa"/>
            <path id="Path_30" data-name="Path 30" d="M13.9,20.5a7.93,7.93,0,0,1-.9-.4,3.352,3.352,0,0,0-1,0c-.1-.3-.2-.3-.4-.4-.6-.3-.3.3-.6.3s-.7-.4-.4-.7c.2-.2-.4-1.1-.8-1.1a2.768,2.768,0,0,1-1.3-.3c-.2-.4-1.1-.4-1.2-.8h.1c-.2,0-.6.2-.8.2-.1,0-.5,0-.6-.1a1.421,1.421,0,0,0-.6-.2c0,.1.1.1.2.2-.6,0-.2.6-.3.6-.3,0-.2-.5-.2-.6.1-.1.1-.1,0-.2-.1-.2-.1,0-.2.1-.4.2-.9.5-.8,1-.4.2,0,.8.1,1.1,0,.1,0,.1.1.2,0,.4-.5.7-.5,1.1s-.1.5.3.7c0,.2-.3.4-.2.7,0,.1.2.1.4.3a10.627,10.627,0,0,0,.9,1.1c.4.4.5,1,1.1,1.1a1.955,1.955,0,0,1,1.3.8c.2.4.2.9.4,1.3a2.45,2.45,0,0,0,.4,1.2c.3.6.4-.5.4.2,0,.3.2.1.3.4A6.8,6.8,0,0,1,10,30c0-.5.2.6.1.5-.3-1,.8.4,1.4.7,0-.3-.8,0-.6-.1.3-.2.1-.1,0-.3.1,0,.2.2.1,0,.1.1-.7-.2-.4-.3.2-.1.6,0,.5-.3,0-.1-.3-.4,0-.5.2-.1.6-.1.7-.3.3-.7-.3-.5-.5-.9,0,.1.9,0,1-.3l.3-1.2h0c0-.2,0-.3.2-.4-.1-.2-.1-.4-.2-.6,0-.2.3-.5.4-.6a1.441,1.441,0,0,0,.8-1.3c.1-.4-.3-1.3-.2-1.5.3-.5,1-1.9.3-2.1" transform="translate(-0.8 -0.856)" fill="#fff"/>
            <path id="Path_31" data-name="Path 31" d="M6.2,12.6c.1,0,.2,0,.2-.2-.1.1-.4.2-.2.2" transform="translate(-0.8 -0.856)" fill="#f9f9fa"/>
            <path id="Path_32" data-name="Path 32" d="M33.4,14.8c-.6.1-.8.3-1-.4-.1-.5-1-.8-1.1-1.3a2.01,2.01,0,0,0-.4-.8c-.2-.3-.2-.7-.4-1.1-.2-.3-.2-.6-.4-.9-.2-.4-.7-1-.7-1.5.2.2.3.6.5.6a1.417,1.417,0,0,0-.1-1.1c-.3.1-.6-.1-.9,0a1.4,1.4,0,0,1-1.1,0c-.3-.1-1.5-.8-1.4,0,0,.9-1.1-.3-1.4-.4s-.8.1-.8-.4c0-.3.1-.5.1-.8-.1.1-.2.1-.2,0-.1-.2-.3.1-.5.1h-.9a2.947,2.947,0,0,0-1.3.5c-.5.3-.9-.1-1.2.2h0a6.47,6.47,0,0,1-.8.9c-.2.2-.1.5-.2.8a1.167,1.167,0,0,1-.6.6,1.445,1.445,0,0,0-.7,1,3.552,3.552,0,0,1-.4.9c-.2.4.1,1,.1,1.4a1.613,1.613,0,0,1-.3.9c-.1.2,0,.5,0,.8h0a4.349,4.349,0,0,0,.6.7c.4.4.4.9.8,1.3.3.3.6.7,1.1.6a1.421,1.421,0,0,1,.6-.2c.2,0,.3.2.5.2.4,0,.9-.6,1.4-.6.4,0,.4.7.7.6,1.1,0,1,.8.7,1.5-.2.5.3.9.6,1.3.3.3.3.9.4,1.3a3.4,3.4,0,0,1,.2,1.4c-.1.4-.4.7-.5,1.1a2.543,2.543,0,0,0,.4,1.7c.2.5.1.5.5.9.3.4,1-.3,1.2.7,0-.1.7.1,1.1,0,.3-.2.9-.1,1.3-.1,0-.1.3.1.4,0,.3-.4.2.3.6-.1h0c.4-.3.5-.2.5-.8,0-.3-.5-.9,0-1.1.1-.4.5-.6.8-.8.9-.5.2-1.3.5-2.1.1-.3-.3-.6-.3-.9s-.1-.6-.1-.9.2-.4.3-.7c.2-1,1.1-1.3,1.6-2.1.5-.7,1.3-2.3,1-3.1-.1-.1-.4.1-.8.2" transform="translate(-0.8 -0.856)" fill="#fff"/>
            <path id="Path_33" data-name="Path 33" d="M16.9,2.1c0-.1.3.2.4,0A.367.367,0,0,0,17,2c.1,0,.3.1.5,0h0c.1,0,.2,0,.2-.1h-.2c0-.1.1,0,.2-.1,0-.1-.2-.1-.2-.1,0-.1.4,0,.5-.1-.1,0-.1,0-.2-.1h-.2c.1-.1.8-.2.8-.3.2,0,.5,0,.6-.1,0,0-1.7.2-1.8.2l.4-.1h-.2c.1,0,.2-.1.3-.1a8.266,8.266,0,0,0-2.7.1h0c-.1,0-.4-.1-.5,0h-.2c-.1,0-1,0-1.1.2h.2c-.1.2-.5,0-.6.2,0,.1.4,0,.4,0-.1.1-.3,0-.4.1h.3c.2,0,.8-.1.7.2.1,0,.1,0,0,.1a1.007,1.007,0,0,1,.3.1.139.139,0,0,1-.2,0c0,.1.2.1.3.1-.1.1-.3.1-.4.3h.1c-.1.1.1.2.1.2-.2.1.4.4.5.4s.5-.5.7-.6h0c.3,0,.4-.2.7-.2a5.019,5.019,0,0,0,1.2-.2c-.1,0-.5,0-.5-.1.1,0,.1,0,.1-.1.1,0,.5.2.5.1.1.2-.2.1-.3.1m1.5-.9h0M17,1.2h0m-.6,0h0" transform="translate(-0.8 -0.856)" fill="#fff"/>
            <path id="Path_34" data-name="Path 34" d="M6,10.6a.1.1,0,0,0-.1.1c0-.1.1,0,.1-.1H6" transform="translate(-0.8 -0.856)" fill="#f9f9fa"/>
            <path id="Path_35" data-name="Path 35" d="M17.6,2.6h0c.4.1.7.3,1.2,0,0-.1-.2-.2,0-.2-.1,0-.6-.1-.6,0-.1,0-.2,0-.2-.1-.1,0-.2.1-.1-.1h-.2l.2.1h-.3c-.1.2,0,.2,0,.3h0" transform="translate(-0.8 -0.856)" fill="#fff"/>
            <path id="Path_36" data-name="Path 36" d="M12.2,5.1c-.1.1.1,0,0,0" transform="translate(-0.8 -0.856)" fill="#f9f9fa"/>
            <path id="Path_37" data-name="Path 37" d="M4.8,13.8c-.1,0-.3.3.2.3v-.2H5a.349.349,0,0,0-.2-.1" transform="translate(-0.8 -0.856)" fill="#f9f9fa"/>
            <path id="Path_38" data-name="Path 38" d="M5.6,14.1c.2-.4.5.2.5.2.1,0,.3-.4.3-.2H7a1.007,1.007,0,0,1-.1-.3c-.1-.2-.1-.4-.3-.5-.1,0-.3.1-.4,0-.2-.4-.2.4-.2.5,0-.1-.8,0-.4.3" transform="translate(-0.8 -0.856)" fill="#fff"/>
            <path id="Path_39" data-name="Path 39" d="M11.5,5.7c0,.1-.1.1,0,0-.1.1.2.3.3.1-.1.1-.2.1-.3-.1" transform="translate(-0.8 -0.856)" fill="#f9f9fa"/>
            <path id="Path_40" data-name="Path 40" d="M5.8,13.1c-.1-.2.1-.3-.2-.4a2.509,2.509,0,0,0-.5-.8c-.5-.5-.8-.4-1.2.2.4.1.5-.5.6-.1A.747.747,0,0,1,5,13c.3.1.5.5.8.1" transform="translate(-0.8 -0.856)" fill="#fff"/>
            <path id="Path_41" data-name="Path 41" d="M7.3,14.3c-.1.2.3.3.4.2-.1-.1-.4-.4-.4-.2" transform="translate(-0.8 -0.856)" fill="#f9f9fa"/>
            <path id="Path_42" data-name="Path 42" d="M6.9,13.8h0" transform="translate(-0.8 -0.856)" fill="#f9f9fa"/>
            <path id="Path_43" data-name="Path 43" d="M5.8,11.3v-.2c-.1.1-.1.4,0,.2" transform="translate(-0.8 -0.856)" fill="#f9f9fa"/>
            <path id="Path_44" data-name="Path 44" d="M4.2,12.3a.1.1,0,0,0-.1.1c.1-.1.1.1.1-.1.1-.2.1-.1,0,0" transform="translate(-0.8 -0.856)" fill="#f9f9fa"/>
            <path id="Path_45" data-name="Path 45" d="M10.1,1.9h.3c-.1-.1-.2,0-.3,0" transform="translate(-0.8 -0.856)" fill="#f9f9fa"/>
            <path id="Path_46" data-name="Path 46" d="M24.5,6.2c.1.6.5-.2-.1-.1a.1.1,0,0,1,.1.1" transform="translate(-0.8 -0.856)" fill="#f9f9fa"/>
            <path id="Path_47" data-name="Path 47" d="M20.6,3.6c.4,0,.6-.1.6-.4,0,0,.3-.2-.1-.3-.1,0-.4,0-.3.1-.1,0-.3,0-.3.1l.1.1c.1.1-.3.4,0,.4" transform="translate(-0.8 -0.856)" fill="#fff"/>
            <path id="Path_48" data-name="Path 48" d="M24.5,5.9V5.5a.349.349,0,0,1-.2.1,1.439,1.439,0,0,1,.2.3" transform="translate(-0.8 -0.856)" fill="#f9f9fa"/>
            <path id="Path_49" data-name="Path 49" d="M28.4,7.7a4.331,4.331,0,0,0-.5-.1c.1.1.4.2.5.1" transform="translate(-0.8 -0.856)" fill="#f9f9fa"/>
            <path id="Path_50" data-name="Path 50" d="M23.2,6.2s.2.1.2,0c-.1-.1-.1-.1-.2,0" transform="translate(-0.8 -0.856)" fill="#f9f9fa"/>
            <path id="Path_51" data-name="Path 51" d="M21.6,3.1h0c-.1.1,0,.1,0,0h0" transform="translate(-0.8 -0.856)" fill="#f9f9fa"/>
            <path id="Path_52" data-name="Path 52" d="M21.1,2.5c.1,0,.1,0,.1-.1,0,0-.2.1-.1.1" transform="translate(-0.8 -0.856)" fill="#f9f9fa"/>
            <path id="Path_53" data-name="Path 53" d="M21.2,2.5c0,.1,0,.1.1.1v.3h.1V2.8c.2.1,0,0,0,.2,0,.1.3,0,.3,0-.1.1,0,.1.1.1,0,.1-.2.1-.3.1,0,.2-.1.2-.1.3,0,0,.4.1.4,0,0,.1-.4.1-.5.3a5.067,5.067,0,0,0,1.3-.2h-.1c.2-.2.2-.4,0-.3h-.1c0-.3-.4-.5-.7-.6,0-.1.3-.2.2-.3-.2.1-.3.1-.4-.1.1,0,.1-.1.2-.1,0-.2-.6.1-.4.1.1.3-.1.2-.1.2" transform="translate(-0.8 -0.856)" fill="#fff"/>
            <path id="Path_54" data-name="Path 54" d="M9.1,2h.1c0-.1-.1,0-.1,0h0" transform="translate(-0.8 -0.856)" fill="#f9f9fa"/>
            <path id="Path_55" data-name="Path 55" d="M25.3,6.8c0,.1.5.3.6.3V6.8c-.1,0-.5-.1-.6,0" transform="translate(-0.8 -0.856)" fill="#f9f9fa"/>
            <path id="Path_56" data-name="Path 56" d="M26.4,2.8a.1.1,0,0,0,.1-.1s-.1-.1-.1.1h0" transform="translate(-0.8 -0.856)" fill="#f9f9fa"/>
            <path id="Path_57" data-name="Path 57" d="M23.1,1c-.1,0,0,0,.1.1L23.1,1" transform="translate(-0.8 -0.856)" fill="#f9f9fa"/>
            <path id="Path_58" data-name="Path 58" d="M23.3,1.1h0c.1.1.4.1.4.1h-.3c0,.2.6,0,.8,0h.5a.6.6,0,0,0-.4-.1h-.1c.3,0,.7-.1.8-.1a3.4,3.4,0,0,0-1-.1h-.2c0,.1.2,0,.2,0h-.3s-.4-.1-.2,0h-.2c.1.1.1.1,0,.2,0-.1.1-.1,0,0,0-.1-.1-.1-.2-.1h.1a.1.1,0,0,0,.1.1" transform="translate(-0.8 -0.856)" fill="#f9f9fa"/>
            <path id="Path_59" data-name="Path 59" d="M24.4,2.9h0" transform="translate(-0.8 -0.856)" fill="#f9f9fa"/>
            <path id="Path_60" data-name="Path 60" d="M25.8,2.9l.1-.1c-.1,0-.2.1-.1.1" transform="translate(-0.8 -0.856)" fill="#f9f9fa"/>
            <path id="Path_61" data-name="Path 61" d="M22.1,4v.2c-.1,0-.6-.1-.6,0,0,.2,1,.3.8.6h0c0,.5-.1.4-.5.4-.3,0-.6-.1-.9-.1-.4,0-.2.2-.2.4,0,.1-.2,1.1,0,1.1.3,0,.4-.1.6.2.1.2.6-.1.8,0a1,1,0,0,0,.5-.4c-.5-.2.6-.6.6-.7-.2-.5.6-.1.8-.2.5-.2.5-.1.9.3-.1-.1,1.5,1.1,1,1.1,0,.2.3-.2.3-.2-.1-.3-.2-.3.2-.2,0-.3-.5-.2-.6-.5-.3,0-.9-.5-.9-.8,0-.2,1,.5,1.1.5,0,.2.5.3.6.6,0,.2.5.6.6.6-.1.2,0,.3.3.4L27.4,7c.2,0,.4.1.5,0-.2-.2-.3-.4-.5-.5,0-.2.3.1.3.1V6.5c.2,0,.2-.1.4,0,.2.2.2-.1.4,0l.1.1c-.1,0-.7-.1-.6.2,0,.2.3.1,0,.3a1.756,1.756,0,0,1,.5.4h-.1a3.6,3.6,0,0,0,1.8.1,2.152,2.152,0,0,1,0,.8v.4a4.875,4.875,0,0,1,.3.7c0,.8,1.2,1.2,1.3,1.9a2.286,2.286,0,0,0,.7,1,7.459,7.459,0,0,1,.7,1.2c.5.9,1,.2,1.8-.1a11.364,11.364,0,0,0-.6-2.5c-.2-.1-.1-.3-.2-.5-.1,0,0,.1-.1.1-.1-.3-.5-.5-.7-.8-.3-.7,1.2-.1,1.4.2-.3-1.1-3.4-4.9-5.6-6.5A29.535,29.535,0,0,0,26,1.2h-.9a3.337,3.337,0,0,1-1.2.5H24c-.2,0-1.1.1-.6.5a.1.1,0,0,0-.1.1h.2c0,.1-.1,0-.1.1,0,.2.7.1.7,0,.2-.1.3,0,.4.2,0,.1.3.5.4.5s.6-.1.6-.3c-.4-.1.2-.4.2-.4-.1-.2-.3-.1-.4-.4,0-.2.7-.2.6-.3.1-.1.5-.3.7,0,0,0-.6.3-.7.2.1.1,0,.2.2.2-.2.3,1.3.2,1.4.4-.3.1-.7-.1-1,0-.1,0,.2.2.2.3,0-.1-.8.1-.7.5h-.2c-.2-.1-1,.2-1,0h-.7V3.2a.1.1,0,0,1,.1.1c0-.1,0-.1-.1-.1,0-.1,0-.2.1-.2,0-.1-.1-.1-.1-.2-.4.2-.4.2-.2.5.1.2-.3.2-.4.1-.4,0-.3.3-.7.4-.1.1-.2.3-.7.2M32.3,7.2h0c-.5,0-.7-.6-1.1-.7.4-.1.7.6,1.1.7M28.5,5.4c.4-.1.3-.2.7.2.2.1.5.3.7,0-.1,0-.3,0-.3-.1s.4-.2.6-.2c-.1,0,.2.3-.2.3.3.4,1,.4,1.2.9-.2,0-.2.1-.4.1a5.638,5.638,0,0,1-1.2-.4c-.3,0-.6.1-.9.1h0c-.4-.4-.1-.3-.2-.7,0-.1.1-.1,0-.2" transform="translate(-0.8 -0.856)" fill="#fff"/>
            <path id="Path_62" data-name="Path 62" d="M24.6,3.2h0c.2.1.1-.1.2-.1-.2-.2-.4,0-.2.1h0" transform="translate(-0.8 -0.856)" fill="#f9f9fa"/>
            <path id="Path_63" data-name="Path 63" d="M30.1,7.8c-.1,0-.3.1-.4.1.1.2.4,0,.4-.1" transform="translate(-0.8 -0.856)" fill="#f9f9fa"/>
            <path id="Path_64" data-name="Path 64" d="M9.9,1.7h0c.2,0,.3,0,.3-.1h.1c-.1-.1-.4,0-.5,0H9.7c-.1,0,0,0,.2.1h0" transform="translate(-0.8 -0.856)" fill="#f9f9fa"/>
            <path id="Path_65" data-name="Path 65" d="M9.4,1.8h0c0-.1.1-.1,0,0-.1-.1-.1,0,0,0" transform="translate(-0.8 -0.856)" fill="#f9f9fa"/>
            <path id="Path_66" data-name="Path 66" d="M9.8,1.9c-.1,0-.2,0-.2.1.1-.1.5.1.5-.2,0,0-.4,0-.3.1h0c-.1,0-.1-.1-.2,0h.2" transform="translate(-0.8 -0.856)" fill="#f9f9fa"/>
            <path id="Path_67" data-name="Path 67" d="M10.6,1.9c-.3.1.2.1.3.1.3-.2.9.1,1.2-.1h0a4.8,4.8,0,0,0-1.2,0H11c0-.1-.7-.1-.8,0h.2c.2-.1.2-.1.2,0" transform="translate(-0.8 -0.856)" fill="#f9f9fa"/>
            <path id="Path_68" data-name="Path 68" d="M9.2,2.6c.1-.2-.5,0-.3,0h.3" transform="translate(-0.8 -0.856)" fill="#f9f9fa"/>
            <path id="Path_69" data-name="Path 69" d="M9,2.2a.6.6,0,0,0,.7,0H9.6c.1-.1,0,0-.1,0,.1,0,.2,0,.2-.1,0,0-.7.1-.4.1-.1,0-.2-.1-.3,0" transform="translate(-0.8 -0.856)" fill="#f9f9fa"/>
            <path id="Path_70" data-name="Path 70" d="M10.7,1.7h0" transform="translate(-0.8 -0.856)" fill="#f9f9fa"/>
            <path id="Path_71" data-name="Path 71" d="M9.4,1.9h.2c-.1,0-.3-.1-.2,0h0" transform="translate(-0.8 -0.856)" fill="#f9f9fa"/>
            <path id="Path_72" data-name="Path 72" d="M10.6,1.5h0" transform="translate(-0.8 -0.856)" fill="#f9f9fa"/>
            <path id="Path_73" data-name="Path 73" d="M11,1.5h0" transform="translate(-0.8 -0.856)" fill="#f9f9fa"/>
            <path id="Path_74" data-name="Path 74" d="M10.7,1.6c.1-.1-.3-.1-.2,0-.3.1.1,0,.2,0" transform="translate(-0.8 -0.856)" fill="#f9f9fa"/>
            <path id="Path_75" data-name="Path 75" d="M11,1.5h0c.1.1.4.1.5.1h-.2c.4,0,1.1.2,1.3-.1h-.1c.1-.1.2,0,.2-.1.2,0,.3-.1.4-.1H13c.4-.1.8-.1,1.1-.2h-.2s.4,0,.5-.1c0-.1-.7,0-.4,0a6.473,6.473,0,0,0-2.4.1H12s.2,0,.1.1c-.2.2-.3,0-.4.1.1,0,.1-.1,0-.1h0c-.1.1-.4-.1-.5-.1h-.1c0,.3-.1.3-.1.4h0m1.3-.2h0m.5,0c.1,0,.1-.1,0,0h0" transform="translate(-0.8 -0.856)" fill="#fff"/>
            <path id="Path_76" data-name="Path 76" d="M11.3,1.7c-.1,0-.2,0-.2.1a.31.31,0,0,1,.2-.1" transform="translate(-0.8 -0.856)" fill="#f9f9fa"/>
            <path id="Path_77" data-name="Path 77" d="M12,1.3h0" transform="translate(-0.8 -0.856)" fill="#f9f9fa"/>
            <path id="Path_78" data-name="Path 78" d="M11.8,2l.1.1a1.087,1.087,0,0,0,.5-.1c-.1,0-.5-.1-.6,0" transform="translate(-0.8 -0.856)" fill="#f9f9fa"/>
          </g>
          <g id="Shape-2" data-name="Shape" transform="translate(7.2 31.044)" opacity="0.5">
            <g id="Group_2" data-name="Group 2">
              <path id="Path_79" data-name="Path 79" d="M0,.9V1c.6.5,1.1,1.1,1.7,1.6l.8.8a2.7,2.7,0,0,0,.8.7,7.714,7.714,0,0,0,1.9.8L7,5.5,5.2,4.9a7.714,7.714,0,0,1-1.9-.8,2.7,2.7,0,0,1-.8-.7l-.8-.8C1.2,2,.6,1.5,0,.9Z" transform="translate(0 -0.9)" fill="#6d6968"/>
            </g>
          </g>
          <path id="Shape-3" data-name="Shape" d="M34.8,26.7c-2.4-.4-6.7.5-7.6.3a18.079,18.079,0,0,1-2.7-1c-.2-.1-.9-.8-1.2-1-.5-.3-1.1-.4-1.7-.7-1.9-.8-2.7.5-2.5.9a5.221,5.221,0,0,0,1.2,1.3c.2.1.6.5,1.2.9A2.774,2.774,0,0,0,23,28.6a.349.349,0,0,1,.2.1c.1,0,.1.1.2.1a5.628,5.628,0,0,1,1,1.4,10.928,10.928,0,0,1-2.5,2.2,19.073,19.073,0,0,1-6.4.2L14,32.3c-.6-.2-1.2,0-1.7-.4-.7-.6-1.5-.8-2-1.2-1-.8-.6-1.2-1.5-2.3s-2.1-1.3-2.6-.9c-.6.6-.3,1,.2,2,0,.1.1.1.1.2a1.794,1.794,0,0,1,.6,1A2.326,2.326,0,0,0,8,31.8c.1.1.2.3.3.4a11.478,11.478,0,0,0-1.9-1.5c-.8-.7-.7-1.1-1.4-2S2.9,27.5,2.6,28c-.4.6,0,1.2.4,2,0,.1.3-.1.3,0,.1.3.6.5.7.8a6.916,6.916,0,0,0,1,1.9,21.606,21.606,0,0,0,4.4,4.6" transform="translate(-0.8 -0.856)" fill="none" stroke="#fff" stroke-width="0.5" fill-rule="evenodd"/>
          <path id="Shape-4" data-name="Shape" d="M42.7,34.6l.1-.8-.1-.4s-3.4.5-5,.6a13.173,13.173,0,0,0-5.2-.3,28.264,28.264,0,0,0-4.4,1.2,34.49,34.49,0,0,1-6.9,3.8c-.1.1,10.2-3.7,12.7-3.9,2.9-.2,8.8-.2,8.8-.2" transform="translate(-0.8 -0.856)" fill="#fff"/>
          <path id="Shape-5" data-name="Shape" d="M11.4,34.8c.9.4,3.9,2.1,3.9,2.1S11,35.5,9.9,34.6A22.988,22.988,0,0,1,7,30.5" transform="translate(-0.8 -0.856)" fill="#fff"/>
          <path id="Shape-6" data-name="Shape" d="M6,28.3c1,.6,1.1,2.7,1.9,3.4" transform="translate(-0.8 -0.856)" fill="#fff"/>
          <path id="Shape-7" data-name="Shape" d="M2.6,28a8.869,8.869,0,0,0,2.1,3.5c.8.7,1.2,2.4,1.8,3.1a41.818,41.818,0,0,1-3.8-4.9A1.808,1.808,0,0,1,2.6,28" transform="translate(-0.8 -0.856)" fill="#fff"/>
          <path id="Shape-8" data-name="Shape" d="M5.2,33c.7.6,1.1,1.1,2,1.8.8.7,1.1,1.8,2,2.1.9.4,4.4,1.3,4.4,1.3s-3.6,0-4.8-.9A26.841,26.841,0,0,1,6,34.2" transform="translate(-0.8 -0.856)" fill="#fff"/>
          <path id="Shape-9" data-name="Shape" d="M20.3,26.5c.2.1.6.5,1.2.9A2.774,2.774,0,0,0,23,28.6a.349.349,0,0,1,.2.1c.1,0,.1.1.2.1a5.628,5.628,0,0,1,1,1.4c-.1.1-2,2-2.1,2a11.138,11.138,0,0,0,2.5-1.4c.1.1.2-1.4.2-1.4-.2-.6-2.1-1.4-2.8-1.9a12.1,12.1,0,0,0-1.9-1" transform="translate(-0.8 -0.856)" fill="#fff"/>
        </g>
        <g id="Group-2" data-name="Group" transform="translate(46.9 0.1)">
          <path id="Shape-10" data-name="Shape" d="M.7,4.8a.6.6,0,0,0,.4-.1h.8c.2,0,.3,0,.4.1a.774.774,0,0,0,.1.3,1.087,1.087,0,0,0,.1.5.9.9,0,0,0,.1.5v.3a2.651,2.651,0,0,1,.5-.6,4.349,4.349,0,0,1,.7-.6,3.552,3.552,0,0,1,.9-.4,3.75,3.75,0,0,1,1.1-.1A4.671,4.671,0,0,1,7.5,5,3.316,3.316,0,0,1,8.9,6a3.932,3.932,0,0,1,.9,1.7,8.751,8.751,0,0,1,.3,2.4,5.925,5.925,0,0,1-1.5,4.3,5.678,5.678,0,0,1-4.2,1.5,2.769,2.769,0,0,1-.9-.1,1.884,1.884,0,0,1-.8-.2v4.9a.9.9,0,0,0-.5.1h-1a.749.749,0,0,1-.5-.1Zm2.1,9a2.354,2.354,0,0,0,.8.2c.3,0,.6.1,1.1.1a5.9,5.9,0,0,0,1.4-.2,4.129,4.129,0,0,0,1.1-.7,3.991,3.991,0,0,0,.7-1.3,4.844,4.844,0,0,0,.3-1.8,4.764,4.764,0,0,0-.6-2.6,2.117,2.117,0,0,0-2-1,3.553,3.553,0,0,0-1,.2,2.361,2.361,0,0,0-.9.6,7.018,7.018,0,0,0-.6.9,2.966,2.966,0,0,0-.2,1.4v4.2Z" transform="translate(-0.7 -0.2)" fill="#fff"/>
          <path id="Shape-11" data-name="Shape" d="M12,4.8c.2,0,.3,0,.4-.1h.9c.2,0,.3,0,.4.1,0,.2.1.5.1.8s.1.6.1.9a3.5,3.5,0,0,1,3-1.7h.6a.6.6,0,0,0,.1.4v.9a.749.749,0,0,1-.1.5h-.6a4.253,4.253,0,0,0-1.1.2,2.361,2.361,0,0,0-.9.6,1.975,1.975,0,0,0-.6,1.1,4.7,4.7,0,0,0-.2,1.8v5.3a.9.9,0,0,0-.5.1h-1a.749.749,0,0,1-.5-.1V4.8Z" transform="translate(-0.7 -0.2)" fill="#fff"/>
          <path id="Shape-12" data-name="Shape" d="M22.7,15.8a5.087,5.087,0,0,1-2.2-.4,6.1,6.1,0,0,1-1.6-1.2,5.076,5.076,0,0,1-.9-1.8,7.8,7.8,0,0,1-.3-2.2A7.8,7.8,0,0,1,18,8a5.076,5.076,0,0,1,.9-1.8A3.978,3.978,0,0,1,20.5,5a5.087,5.087,0,0,1,2.2-.4,5.087,5.087,0,0,1,2.2.4,6.1,6.1,0,0,1,1.6,1.2A5.076,5.076,0,0,1,27.4,8a7.8,7.8,0,0,1,.3,2.2,7.8,7.8,0,0,1-.3,2.2,5.076,5.076,0,0,1-.9,1.8,3.978,3.978,0,0,1-1.6,1.2,7.8,7.8,0,0,1-2.2.4m0-1.7a2.183,2.183,0,0,0,2.1-1,4.99,4.99,0,0,0,.7-2.9,4.99,4.99,0,0,0-.7-2.9,2.393,2.393,0,0,0-2.1-1,2.183,2.183,0,0,0-2.1,1,4.789,4.789,0,0,0-.7,2.9,4.99,4.99,0,0,0,.7,2.9,2.183,2.183,0,0,0,2.1,1" transform="translate(-0.7 -0.2)" fill="#fff"/>
          <path id="Shape-13" data-name="Shape" d="M29.7,6.5H28.1L28,6.2l3.6-4h.2V4.8h2.7a1.949,1.949,0,0,1,.1.8V6a.6.6,0,0,1-.1.4H31.8v4.9a5.721,5.721,0,0,0,.1,1.4,1.135,1.135,0,0,0,.3.8,1,1,0,0,0,.5.4c.1.1.3.1.6.1a1.7,1.7,0,0,0,.7-.1c.2,0,.4-.1.6-.1a2.92,2.92,0,0,1,.2.9v.8c-.3.1-.6.1-.9.2-.3,0-.6.1-1,.1a3.174,3.174,0,0,1-2.3-.7,2.921,2.921,0,0,1-.8-2.4V6.5Z" transform="translate(-0.7 -0.2)" fill="#fff"/>
          <path id="Shape-14" data-name="Shape" d="M37.3,10.7a3.418,3.418,0,0,0,.9,2.6,3.844,3.844,0,0,0,2.6.8,8.676,8.676,0,0,0,2.8-.5,6.89,6.89,0,0,1,.3.8,2.769,2.769,0,0,1,.1.9,8.331,8.331,0,0,1-1.5.4,10.283,10.283,0,0,1-1.8.1,6.249,6.249,0,0,1-2.5-.4,5.552,5.552,0,0,1-1.7-1.1,4.248,4.248,0,0,1-1-1.7,7.8,7.8,0,0,1-.3-2.2,7.8,7.8,0,0,1,.3-2.2,5.076,5.076,0,0,1,.9-1.8A3.978,3.978,0,0,1,38,5.2a5.087,5.087,0,0,1,2.2-.4,3.807,3.807,0,0,1,1.9.4,3.587,3.587,0,0,1,1.4,1,4.171,4.171,0,0,1,.9,1.6,6.448,6.448,0,0,1,.3,2V11H37.3Zm5.3-1.5a3.6,3.6,0,0,0-.2-1.1,1.934,1.934,0,0,0-.5-.9,1.555,1.555,0,0,0-.8-.6A1.978,1.978,0,0,0,40,6.4a2.407,2.407,0,0,0-1.9.8,3.34,3.34,0,0,0-.8,2.1h5.3Z" transform="translate(-0.7 -0.2)" fill="#fff"/>
          <path id="Shape-15" data-name="Shape" d="M53.4,13.7a4.876,4.876,0,0,1,.3.7,2.769,2.769,0,0,1,.1.9,8.21,8.21,0,0,1-2.8.5,5.06,5.06,0,0,1-4-1.5,5.984,5.984,0,0,1-1.4-4.1A7.8,7.8,0,0,1,45.9,8a5.244,5.244,0,0,1,1-1.8A4.813,4.813,0,0,1,48.5,5a5.558,5.558,0,0,1,2.3-.4,6.622,6.622,0,0,1,1.5.1c.4.1.9.2,1.3.3a2.485,2.485,0,0,1-.1.8c-.1.3-.1.6-.3.8a8.519,8.519,0,0,0-2.3-.4,2.775,2.775,0,0,0-2.4,1.1,4.655,4.655,0,0,0-.8,2.8,4.03,4.03,0,0,0,.9,2.9,3.328,3.328,0,0,0,2.5.9,4.869,4.869,0,0,0,1.2-.1,2.079,2.079,0,0,0,1.1-.1" transform="translate(-0.7 -0.2)" fill="#fff"/>
          <path id="Shape-16" data-name="Shape" d="M55.6,6.5H54l-.1-.3,3.6-4h.2V4.8h2.7a1.949,1.949,0,0,1,.1.8V6a.6.6,0,0,1-.1.4H57.7v4.9a5.722,5.722,0,0,0,.1,1.4,1.884,1.884,0,0,0,.2.8,1,1,0,0,0,.5.4,1.949,1.949,0,0,0,.8.1,1.7,1.7,0,0,0,.7-.1c.2,0,.4-.1.6-.1a2.92,2.92,0,0,1,.2.9v.8c-.3.1-.6.1-.9.2-.3,0-.6.1-1,.1a3.174,3.174,0,0,1-2.3-.7,2.921,2.921,0,0,1-.8-2.4V6.5Z" transform="translate(-0.7 -0.2)" fill="#fff"/>
          <path id="Shape-17" data-name="Shape" d="M63.1,10.7a3.418,3.418,0,0,0,.9,2.6,3.742,3.742,0,0,0,2.5.8,8.676,8.676,0,0,0,2.8-.5,6.89,6.89,0,0,1,.3.8,2.769,2.769,0,0,1,.1.9,8.331,8.331,0,0,1-1.5.4,10.869,10.869,0,0,1-1.8.1,6.249,6.249,0,0,1-2.5-.4,5.552,5.552,0,0,1-1.7-1.1,4.248,4.248,0,0,1-1-1.7,7.8,7.8,0,0,1-.3-2.2,7.8,7.8,0,0,1,.3-2.2,5.076,5.076,0,0,1,.9-1.8,3.978,3.978,0,0,1,1.6-1.2,5.087,5.087,0,0,1,2.2-.4,3.807,3.807,0,0,1,1.9.4,3.587,3.587,0,0,1,1.4,1,4.171,4.171,0,0,1,.9,1.6,6.448,6.448,0,0,1,.3,2V11H63.1Zm5.3-1.5a3.6,3.6,0,0,0-.2-1.1,1.934,1.934,0,0,0-.5-.9,1.555,1.555,0,0,0-.8-.6,1.978,1.978,0,0,0-1.1-.2,2.407,2.407,0,0,0-1.9.8,3.34,3.34,0,0,0-.8,2.1h5.3Z" transform="translate(-0.7 -0.2)" fill="#fff"/>
          <path id="Shape-18" data-name="Shape" d="M79,.3a.9.9,0,0,0,.5-.1h1a.749.749,0,0,1,.5.1v15a8.024,8.024,0,0,1-1.8.4,14.979,14.979,0,0,1-2.2.2,7.106,7.106,0,0,1-2.1-.3,5.076,5.076,0,0,1-1.8-.9A4.344,4.344,0,0,1,71.9,13a6.249,6.249,0,0,1-.4-2.5,6.375,6.375,0,0,1,.4-2.4A5.444,5.444,0,0,1,73,6.3a5.229,5.229,0,0,1,1.7-1.2,5.382,5.382,0,0,1,2.2-.4,4.1,4.1,0,0,1,1.1.1c.4.1.7.1,1,.2Zm0,6.4a2.92,2.92,0,0,0-.9-.2,3.4,3.4,0,0,0-1-.1,3.339,3.339,0,0,0-1.5.3,2.189,2.189,0,0,0-1,.9A3.1,3.1,0,0,0,74,8.9a7.772,7.772,0,0,0-.2,1.6,3.616,3.616,0,0,0,.9,2.8,3.328,3.328,0,0,0,2.5.9,3.083,3.083,0,0,0,1-.1,1.884,1.884,0,0,0,.8-.2Z" transform="translate(-0.7 -0.2)" fill="#fff"/>
          <path id="Shape-19" data-name="Shape" d="M.7,22.4a.6.6,0,0,0,.4-.1h.8c.2,0,.3,0,.4.1a.774.774,0,0,0,.1.3,1.087,1.087,0,0,0,.1.5c0,.2.1.7.1.8a2.651,2.651,0,0,1,.5-.6,4.349,4.349,0,0,1,.7-.6,3.552,3.552,0,0,1,.9-.4,3.75,3.75,0,0,1,1.1-.1,4.671,4.671,0,0,1,1.7.3,3.316,3.316,0,0,1,1.4,1,3.932,3.932,0,0,1,.9,1.7,8.751,8.751,0,0,1,.3,2.4A5.925,5.925,0,0,1,8.6,32a5.678,5.678,0,0,1-4.2,1.5,2.769,2.769,0,0,1-.9-.1H2.7V38a.9.9,0,0,0-.5.1h-1A.749.749,0,0,1,.7,38Zm2.1,8.9a2.353,2.353,0,0,0,.8.2c.3,0,.6.1,1.1.1a5.9,5.9,0,0,0,1.4-.2,4.129,4.129,0,0,0,1.1-.7,3.991,3.991,0,0,0,.7-1.3,4.844,4.844,0,0,0,.3-1.8A4.764,4.764,0,0,0,7.6,25a2.117,2.117,0,0,0-2-1,3.553,3.553,0,0,0-1,.2,2.361,2.361,0,0,0-.9.6,7.018,7.018,0,0,0-.6.9,2.966,2.966,0,0,0-.2,1.4v4.2Z" transform="translate(-0.7 -0.2)" fill="#fff"/>
          <path id="Shape-20" data-name="Shape" d="M11.9,17.8a.9.9,0,0,0,.5-.1h1a.749.749,0,0,1,.5.1v12a2.22,2.22,0,0,0,.1.9,2.186,2.186,0,0,0,.3.5.758.758,0,0,0,.4.2c.2,0,.3.1.5.1h.4c.2,0,.3,0,.4-.1a7.772,7.772,0,0,1,.2,1.6,1.483,1.483,0,0,1-.7.1h-.8a3.75,3.75,0,0,1-1.1-.1,2.622,2.622,0,0,1-.9-.5,1.456,1.456,0,0,1-.6-.9,2.966,2.966,0,0,1-.2-1.4Z" transform="translate(-0.7 -0.2)" fill="#fff"/>
          <path id="Shape-21" data-name="Shape" d="M22.8,26a2.059,2.059,0,0,0-.6-1.7,2.969,2.969,0,0,0-1.8-.5,6.6,6.6,0,0,0-1.4.1l-1.2.3a2.934,2.934,0,0,1-.4-1.6,7.491,7.491,0,0,1,1.6-.4,9.151,9.151,0,0,1,1.6-.1,5.075,5.075,0,0,1,3.2.9,3.777,3.777,0,0,1,1.1,3v6.7q-.75.15-1.8.3a14.919,14.919,0,0,1-2.1.2,8.969,8.969,0,0,1-1.8-.2,3.506,3.506,0,0,1-1.4-.6,2.445,2.445,0,0,1-.9-1.1,3.808,3.808,0,0,1-.3-1.6,2.934,2.934,0,0,1,.4-1.6A2.66,2.66,0,0,1,18,27a6.11,6.11,0,0,1,1.4-.7,8.807,8.807,0,0,1,1.7-.2h1.1a1.483,1.483,0,0,1,.7.1V26Zm0,2H21.2a3.677,3.677,0,0,0-2,.5,1.579,1.579,0,0,0-.7,1.5,2.958,2.958,0,0,0,.2,1c.2.2.3.4.6.5a1.884,1.884,0,0,0,.8.2h.8a3.751,3.751,0,0,0,1-.1,2.92,2.92,0,0,0,.9-.2Z" transform="translate(-0.7 -0.2)" fill="#fff"/>
          <path id="Shape-22" data-name="Shape" d="M26.9,22.4c.2,0,.3,0,.4-.1h.8a.6.6,0,0,1,.4.1c0,.2.1.5.1.8,0,.4.1.6.1.9a3.039,3.039,0,0,1,.5-.7c.2-.2.5-.4.7-.6a9.292,9.292,0,0,1,1-.5,5.019,5.019,0,0,1,1.2-.2,3.387,3.387,0,0,1,2.7,1.1,4.589,4.589,0,0,1,.9,3.1v6.8a.9.9,0,0,0-.5.1h-1a.749.749,0,0,1-.5-.1V26.9a4.2,4.2,0,0,0-.5-2.2c-.2-.5-.7-.7-1.4-.7a3.6,3.6,0,0,0-1.1.2,2.837,2.837,0,0,0-.9.6,2.384,2.384,0,0,0-.6,1.1,4.416,4.416,0,0,0-.2,1.7V33a.9.9,0,0,0-.5.1h-1A.749.749,0,0,1,27,33V22.4Z" transform="translate(-0.7 -0.2)" fill="#fff"/>
          <path id="Shape-23" data-name="Shape" d="M39.4,28.2a3.418,3.418,0,0,0,.9,2.6,3.742,3.742,0,0,0,2.5.8,8.676,8.676,0,0,0,2.8-.5,6.89,6.89,0,0,1,.3.8,2.769,2.769,0,0,1,.1.9,8.331,8.331,0,0,1-1.5.4,10.283,10.283,0,0,1-1.8.1,6.249,6.249,0,0,1-2.5-.4,5.552,5.552,0,0,1-1.7-1.1,4.248,4.248,0,0,1-1-1.7,8.217,8.217,0,0,1,0-4.4,5.076,5.076,0,0,1,.9-1.8A3.978,3.978,0,0,1,40,22.7a5.087,5.087,0,0,1,2.2-.4,3.807,3.807,0,0,1,1.9.4,3.587,3.587,0,0,1,1.4,1,4.171,4.171,0,0,1,.9,1.6,6.448,6.448,0,0,1,.3,2v1.2H39.4Zm5.3-1.5a3.6,3.6,0,0,0-.2-1.1,1.934,1.934,0,0,0-.5-.9,1.555,1.555,0,0,0-.8-.6,1.978,1.978,0,0,0-1.1-.2,2.407,2.407,0,0,0-1.9.8,3.34,3.34,0,0,0-.8,2.1h5.3Z" transform="translate(-0.7 -0.2)" fill="#fff"/>
          <path id="Shape-24" data-name="Shape" d="M48.8,24H47.2l-.1-.3,3.6-4h.2v2.6h2.7a1.949,1.949,0,0,1,.1.8v.4a.6.6,0,0,1-.1.4H50.9v4.9a5.722,5.722,0,0,0,.1,1.4,1.884,1.884,0,0,0,.2.8,1,1,0,0,0,.5.4,1.949,1.949,0,0,0,.8.1,1.7,1.7,0,0,0,.7-.1c.2,0,.4-.1.6-.1a2.92,2.92,0,0,1,.2.9V33c-.3.1-.6.1-.9.2-.3,0-.6.1-1,.1a3.174,3.174,0,0,1-2.3-.7,2.921,2.921,0,0,1-.8-2.4V24Z" transform="translate(-0.7 -0.2)" fill="#fff"/>
        </g>
        <path id="Shape-25" data-name="Shape" d="M102.3,19.4c.2,0,.4-.1.6-.1a1.165,1.165,0,0,1,.7.2.764.764,0,0,1,.2.5.634.634,0,0,1-.5.6.7.7,0,0,1,.4.5c.1.3.1.6.2.7h-.3a3.933,3.933,0,0,0-.2-.6c-.1-.3-.2-.5-.5-.5h-.3v1.1h-.3Zm.3,1.1h.3a.472.472,0,0,0,.5-.5c0-.3-.2-.5-.6-.5h-.3v1Z" transform="translate(-0.8 -0.1)" fill="#fff"/>
        <path id="Shape-26" data-name="Shape" d="M104.6,20.6a1.7,1.7,0,1,1-1.7-1.7A1.685,1.685,0,0,1,104.6,20.6Z" transform="translate(-0.8 -0.1)" fill="none" stroke="#fff" stroke-width="0.424" fill-rule="evenodd"/>
        <path id="Shape-27" data-name="Shape" d="M139.4.1l-.2,36.6" transform="translate(-0.8 -0.1)" fill="none" stroke="#fff" stroke-width="0.75" fill-rule="evenodd"/>
        <g id="Group-3" data-name="Group" transform="translate(150 13)">
          <path id="Path_534" data-name="Path 534" d="M3.346-8.666H1.988v4.06H3.514a2.128,2.128,0,0,0,1.6-.574,1.964,1.964,0,0,0,.56-1.428Q5.67-8.666,3.346-8.666Zm.07,4.83H1.988V0H1.12V-9.436H3.248a3.557,3.557,0,0,1,2.471.749,2.729,2.729,0,0,1,.819,2.121,2.837,2.837,0,0,1-.532,1.638,2.532,2.532,0,0,1-1.428.938L7.084,0H6.048L3.682-3.85A1.8,1.8,0,0,1,3.416-3.836ZM13.58-.35a4.33,4.33,0,0,1-1.96.42A3.475,3.475,0,0,1,9.051-.917a3.511,3.511,0,0,1-.987-2.6A3.912,3.912,0,0,1,8.932-6.2a2.87,2.87,0,0,1,2.254-.98,2.652,2.652,0,0,1,2.072.854,3.471,3.471,0,0,1,.77,2.408,4.03,4.03,0,0,1-.056.756H8.96a2.558,2.558,0,0,0,.812,1.8,2.772,2.772,0,0,0,1.89.623,3.412,3.412,0,0,0,1.918-.476ZM11.158-6.384a1.987,1.987,0,0,0-1.5.63,2.876,2.876,0,0,0-.7,1.806h4.186V-4.27a2.159,2.159,0,0,0-.539-1.54A1.893,1.893,0,0,0,11.158-6.384ZM16.618,2.8h-.854V-7.1h.854v1.036a2.448,2.448,0,0,1,2.2-1.148,2.643,2.643,0,0,1,2.226,1.043,4.058,4.058,0,0,1,.8,2.541,4.116,4.116,0,0,1-.854,2.695,2.712,2.712,0,0,1-2.2,1.043,2.471,2.471,0,0,1-2.17-1.176Zm0-6.314a3.9,3.9,0,0,0,.217,1.365,2.147,2.147,0,0,0,.56.882,2.331,2.331,0,0,0,.686.434A1.868,1.868,0,0,0,18.76-.7a1.929,1.929,0,0,0,1.568-.763,3.388,3.388,0,0,0,.616-2.177,3.159,3.159,0,0,0-.6-1.988,1.827,1.827,0,0,0-1.5-.77,2.13,2.13,0,0,0-1.568.665A3.084,3.084,0,0,0,16.618-3.514Zm13.076,0A3.851,3.851,0,0,1,28.805-.9,3.059,3.059,0,0,1,26.362.126,2.965,2.965,0,0,1,23.982-.91a3.877,3.877,0,0,1-.882-2.6,3.889,3.889,0,0,1,.91-2.618A2.951,2.951,0,0,1,26.362-7.2a3.031,3.031,0,0,1,2.457,1.043A3.966,3.966,0,0,1,29.694-3.514Zm-5.7,0a3.142,3.142,0,0,0,.651,2,2.071,2.071,0,0,0,1.715.833,2.147,2.147,0,0,0,1.8-.819A3.173,3.173,0,0,0,28.8-3.514a3.37,3.37,0,0,0-.6-2.051,2.127,2.127,0,0,0-1.834-.819,2.05,2.05,0,0,0-1.736.84A3.287,3.287,0,0,0,24-3.514ZM32.242,0h-.854V-7.1h.854v1.2A2.033,2.033,0,0,1,34.23-7.182q.1,0,.35.028v.868a1.94,1.94,0,0,0-.56-.084,1.5,1.5,0,0,0-1.267.749,2.879,2.879,0,0,0-.511,1.659Zm6.944-.2a1.673,1.673,0,0,1-.938.266A1.807,1.807,0,0,1,36.232-2V-6.37H35.07V-7.1h1.162V-8.876H37.1V-7.1h2.03v.728H37.1v4.41q0,1.218,1.134,1.218a1.451,1.451,0,0,0,.952-.322Zm9.968.2h-5.7V-.77q4.48-3.43,4.48-5.712A1.874,1.874,0,0,0,47.4-7.931a2.054,2.054,0,0,0-1.449-.5,3.66,3.66,0,0,0-2.156.812v-.868a3.414,3.414,0,0,1,2.184-.756,3.028,3.028,0,0,1,2.016.707,2.48,2.48,0,0,1,.84,2.009q0,2.436-4.158,5.754h4.48Zm7.6-4.606a6.207,6.207,0,0,1-.84,3.423A2.665,2.665,0,0,1,53.55.112a2.627,2.627,0,0,1-2.268-1.295,6.051,6.051,0,0,1-.868-3.423A5.773,5.773,0,0,1,51.3-7.987,2.658,2.658,0,0,1,53.55-9.24a2.726,2.726,0,0,1,2.317,1.246A5.733,5.733,0,0,1,56.756-4.606Zm-5.46,0a5.264,5.264,0,0,0,.658,2.849,1.89,1.89,0,0,0,1.6,1.029,1.925,1.925,0,0,0,1.687-1.008,5.384,5.384,0,0,0,.637-2.87,5,5,0,0,0-.665-2.814A1.957,1.957,0,0,0,53.55-8.4a1.919,1.919,0,0,0-1.575.994A4.927,4.927,0,0,0,51.3-4.606ZM63.644,0h-5.7V-.77q4.48-3.43,4.48-5.712a1.874,1.874,0,0,0-.539-1.449,2.054,2.054,0,0,0-1.449-.5,3.66,3.66,0,0,0-2.156.812v-.868a3.414,3.414,0,0,1,2.184-.756,3.028,3.028,0,0,1,2.016.707,2.48,2.48,0,0,1,.84,2.009q0,2.436-4.158,5.754h4.48Zm7.6-4.606a6.207,6.207,0,0,1-.84,3.423A2.666,2.666,0,0,1,68.04.112a2.627,2.627,0,0,1-2.268-1.295A6.051,6.051,0,0,1,64.9-4.606a5.773,5.773,0,0,1,.882-3.381A2.658,2.658,0,0,1,68.04-9.24a2.726,2.726,0,0,1,2.317,1.246A5.733,5.733,0,0,1,71.246-4.606Zm-5.46,0a5.264,5.264,0,0,0,.658,2.849,1.89,1.89,0,0,0,1.6,1.029,1.925,1.925,0,0,0,1.687-1.008,5.384,5.384,0,0,0,.637-2.87A5,5,0,0,0,69.7-7.42,1.957,1.957,0,0,0,68.04-8.4a1.919,1.919,0,0,0-1.575.994A4.927,4.927,0,0,0,65.786-4.606Z" transform="translate(-2 9)" fill="#fff"/>
        </g>
      </g>
    </g>
  </g>
</svg>
