<svg width="24px" height="34px" viewBox="0 0 24 34" version="1.1" xmlns="http://www.w3.org/2000/svg" xmlns:xlink="http://www.w3.org/1999/xlink">
    <g id="Page-1" stroke="none" stroke-width="1" fill="#000000" fill-rule="evenodd">
        <g id="Homepage-2-(D)" transform="translate(-707.000000, -843.000000)" fill="#FFFFFF" fill-rule="nonzero">
            <g id="002-arrow-pointing-to-right" transform="translate(702.000000, 848.000000)">
                <path fill="#000000" d="M33.5369198,10.8533012 L23.4190955,0.47490875 C22.8017818,-0.158302917 21.8006231,-0.158302917 21.1833093,0.47490875 C20.5658691,1.10825015 20.5658691,2.13493261 21.1833093,2.76827401 L28.6023304,10.37836 L1.58091005,10.37836 C0.707868282,10.37836 0,11.1044582 0,11.9999838 C0,12.8953796 0.707868282,13.6216076 1.58091005,13.6216076 L28.6023304,13.6216076 L21.1835623,21.2316936 C20.566122,21.865035 20.566122,22.8917174 21.1835623,23.5250588 C21.4921559,23.8414701 21.8968689,24 22.3014554,24 C22.7060419,24 23.1106284,23.8414701 23.4193485,23.5250588 L33.5369198,13.1466664 C34.1543601,12.513325 34.1543601,11.4866425 33.5369198,10.8533012 Z" id="Shape" transform="translate(17.000000, 12.000000) rotate(-90.000000) translate(-17.000000, -12.000000) "></path>
            </g>
        </g>
    </g>
</svg>