<svg width="100%" height="100%" viewBox="0 0 27 19" version="1.1" xmlns="http://www.w3.org/2000/svg" xmlns:xlink="http://www.w3.org/1999/xlink">
  <g stroke="none" stroke-width="1" fill="none" fill-rule="evenodd">
    <g transform="translate(-809.000000, -8232.000000)" fill="#000000" fill-rule="nonzero">
      <g transform="translate(822.500000, 8241.500000) scale(-1, -1) rotate(90.000000) translate(-822.500000, -8241.500000) translate(813.000000, 8228.000000)">
        <path d="M22.6322599,12.5921967 L14.597517,4.37596943 C14.1072973,3.87467686 13.3122595,3.87467686 12.8220397,4.37596943 C12.3317196,4.8773647 12.3317196,5.69015499 12.8220397,6.19155026 L18.7136154,12.2162016 L-2.74457143,12.2162016 C-3.43786931,12.2162016 -4,12.7910294 -4,13.4999872 C-4,14.2088422 -3.43786931,14.7837727 -2.74457143,14.7837727 L18.7136154,14.7837727 L12.8222406,20.8084241 C12.3319204,21.3098193 12.3319204,22.1226096 12.8222406,22.6240049 C13.0673003,22.8744971 13.38869,23 13.7099793,23 C14.0312685,23 14.3525578,22.8744971 14.5977179,22.6240049 L22.6322599,14.4077776 C23.12258,13.9063823 23.12258,13.093592 22.6322599,12.5921967 Z" id="Shape" transform="translate(9.500000, 13.500000) rotate(90.000000) translate(-9.500000, -13.500000) "></path>
      </g>
    </g>
  </g>
</svg>