<?xml version="1.0" encoding="UTF-8"?>
<svg width="29px" height="29px" viewBox="0 0 29 29" version="1.1" xmlns="http://www.w3.org/2000/svg" xmlns:xlink="http://www.w3.org/1999/xlink">
    <!-- Generator: Sketch 49.3 (51167) - http://www.bohemiancoding.com/sketch -->
    <title>Menu-Close</title>
    <desc>Created with Sketch.</desc>
    <defs></defs>
    <g id="Page-1" stroke="none" stroke-width="1" fill="none" fill-rule="evenodd">
        <g id="Desktop-nav" transform="translate(-1385.000000, -21.000000)" fill="#FFFFFF" fill-rule="nonzero">
            <g id="Menu-Close" transform="translate(1385.000000, 21.000000)">
                <path d="M17.9466071,14.5000681 L28.2861729,4.16049009 C29.2379424,3.20871952 29.2379424,1.6655985 28.2861729,0.713964092 C27.3344035,-0.237806481 25.7914204,-0.237806481 24.839651,0.713964092 L14.4999489,11.0536782 L4.16024692,0.71382793 C3.20847747,-0.237942643 1.66549443,-0.237942643 0.713724969,0.71382793 C-0.237908323,1.6655985 -0.237908323,3.20871952 0.713724969,4.16035393 L11.053427,14.4999319 L0.713724969,24.8396461 C-0.237908323,25.7914166 -0.237908323,27.3345377 0.713724969,28.2861721 C1.66549443,29.2379426 3.20847747,29.2379426 4.16024692,28.2861721 L14.4999489,17.9464579 L24.839651,28.2861721 C25.7912843,29.2379426 27.3344035,29.2379426 28.2861729,28.2861721 C29.2379424,27.3344015 29.2379424,25.7914166 28.2861729,24.8396461 L17.9466071,14.5000681 Z" id="Shape"></path>
            </g>
        </g>
    </g>
</svg>