<?xml version="1.0" encoding="UTF-8"?>
<svg width="17px" height="19px" viewBox="0 0 17 19" version="1.1" xmlns="http://www.w3.org/2000/svg" xmlns:xlink="http://www.w3.org/1999/xlink">
    <!-- Generator: Sketch 49.3 (51167) - http://www.bohemiancoding.com/sketch -->
    <title>download</title>
    <desc>Created with Sketch.</desc>
    <defs></defs>
    <g id="Page-1" stroke="none" stroke-width="1" fill="none" fill-rule="evenodd">
        <g id="Components-(M)-" transform="translate(-204.000000, -18.000000)" fill="#FFFFFF" fill-rule="nonzero">
            <g id="download" transform="translate(204.000000, 18.000000)">
                <path d="M12.9495092,8.5085 C12.8583835,8.29966667 12.658132,8.16666667 12.4376304,8.16666667 L10.187614,8.16666667 L10.187614,0.583333333 C10.187614,0.261333333 9.93561221,0 9.62510994,0 L7.37509356,0 C7.06459129,0 6.81258946,0.261333333 6.81258946,0.583333333 L6.81258946,8.16666667 L4.56257307,8.16666667 C4.34207146,8.16666667 4.14182,8.30083333 4.05069434,8.5085 C3.95844367,8.71733333 3.99444393,8.96116667 4.13956999,9.13383333 L8.07709867,13.8005 C8.18397445,13.9276667 8.33810057,14 8.50010175,14 C8.66210293,14 8.81622905,13.9265 8.92310483,13.8005 L12.8606335,9.13383333 C13.0068846,8.96233333 13.0406348,8.71733333 12.9495092,8.5085 Z" id="Shape"></path>
                <path d="M14.7333333,14 L14.7333333,17 L2.26666667,17 L2.26666667,14 L0,14 L0,18 C0,18.553 0.507733333,19 1.13333333,19 L15.8666667,19 C16.4934,19 17,18.553 17,18 L17,14 L14.7333333,14 Z" id="Shape"></path>
            </g>
        </g>
    </g>
</svg>