<svg width="100%" height="100%" viewBox="0 0 28 20" version="1.1" xmlns="http://www.w3.org/2000/svg" xmlns:xlink="http://www.w3.org/1999/xlink">
  <g stroke="none" stroke-width="1" fill="none" fill-rule="evenodd">
    <g transform="translate(-1297.000000, -30.000000)" fill="#FFFFFF" fill-rule="nonzero">
      <g transform="translate(1297.000000, 30.000000)">
        <path d="M2.46000543,1.16206928 L12.6140103,9.1795403 C13.074452,9.54268695 13.7089508,9.70408546 14.3252344,9.67382324 C14.9405059,9.70408546 15.5750048,9.54369569 16.0354465,9.1795403 L26.1894513,1.16206928 C27.003067,0.523536419 26.8188904,0 25.7866913,0 L14.3262463,0 L2.86580132,0 C1.83259034,8.95941714e-16 1.64841366,0.523536419 2.46000543,1.16206928 Z" id="Shape"></path>
        <path d="M26.5124026,3.54051094 L15.4911153,11.9723149 C15.0790107,12.2842663 14.539254,12.4361907 14.0015077,12.4291009 C13.4627562,12.4361907 12.9229996,12.2832535 12.5108949,11.9723149 L1.48759737,3.54051094 C0.669418818,2.91559526 0,3.25084176 0,4.28494048 L0,18.119176 C0,19.1532747 0.840291489,20 1.86653265,20 L13.9994974,20 L26.1334674,20 C27.1597085,20 28,19.1532747 28,18.119176 L28,4.28494048 C28,3.25084176 27.3305812,2.91559526 26.5124026,3.54051094 Z" id="Shape"></path>
      </g>
    </g>
  </g>
</svg>