<?xml version="1.0" encoding="UTF-8"?>
<svg width="28px" height="26px" viewBox="0 0 28 26" version="1.1" xmlns="http://www.w3.org/2000/svg" xmlns:xlink="http://www.w3.org/1999/xlink">
    <!-- Generator: Sketch 49.3 (51167) - http://www.bohemiancoding.com/sketch -->
    <title>share (2)</title>
    <desc>Created with Sketch.</desc>
    <defs></defs>
    <g id="Page-1" stroke="none" stroke-width="1" fill="none" fill-rule="evenodd">
        <g id="Components-styled-(T)-" transform="translate(-578.000000, -35.000000)" fill="#FFFFFF" fill-rule="nonzero">
            <g id="share-(2)" transform="translate(578.000000, 35.000000)">
                <path d="M23.0999278,15.8888851 C21.5260484,15.8888851 20.1382808,16.6722049 19.2411242,17.8660413 L9.76241012,14.1046305 C9.77199134,13.9761874 9.7999475,13.8531611 9.7999475,13.7222805 C9.7999475,13.4792747 9.76267262,13.2466282 9.73038522,13.0127631 L19.4434455,8.38691767 C20.3420458,9.43551936 21.6401042,10.1111826 23.0998622,10.1111826 C25.8014381,10.1111826 27.9998688,7.84294751 27.9998688,5.05559129 C27.9998688,2.26823507 25.8014381,0 23.0998622,0 C20.3982863,0 18.1999213,2.26816737 18.1999213,5.05552358 C18.1999213,5.29852942 18.2371961,5.53117586 18.2694835,5.76504105 L8.55642326,10.3908864 C7.65782294,9.34228475 6.3597645,8.66662153 4.90000656,8.66662153 C2.19843063,8.66662153 0,10.9348566 0,13.7222128 C0,16.509569 2.19843063,18.7778041 4.90000656,18.7778041 C6.47388602,18.7778041 7.86165356,17.9944844 8.75881013,16.8006479 L18.2375243,20.5620588 C18.227943,20.6905018 18.1999869,20.8135282 18.1999869,20.9444087 C18.1999869,23.7317649 20.3984175,26 23.0999934,26 C25.8015694,26 28,23.7317649 28,20.9444087 C27.9999344,18.1571202 25.8015037,15.8888851 23.0999278,15.8888851 Z" id="Shape"></path>
            </g>
        </g>
    </g>
</svg>