<svg xmlns="http://www.w3.org/2000/svg" width="19" height="19" viewBox="0 0 19 19"><defs><style>.a,.d{fill:none;}.a{stroke:#e5253b;}.b{fill:#e5253b;}.c{stroke:none;}</style></defs><g transform="translate(-1201 -28)"><g class="a" transform="translate(1201 28)"><circle class="c" cx="9.5" cy="9.5" r="9.5"/><circle class="d" cx="9.5" cy="9.5" r="9"/></g><path class="b" d="M3.424-3.776H1.2v-7.008H3.424ZM3.312-2.352a1.366,1.366,0,0,1,.432,1.024A1.4,1.4,0,0,1,3.32-.3,1.4,1.4,0,0,1,2.288.128,1.4,1.4,0,0,1,1.256-.3,1.4,1.4,0,0,1,.832-1.328,1.4,1.4,0,0,1,1.256-2.36a1.4,1.4,0,0,1,1.032-.424A1.366,1.366,0,0,1,3.312-2.352Z" transform="translate(1208 43)"/></g></svg>